<svg id="page300000100" xmlns:ev="http://www.w3.org/2001/xml-events" xmlns:ed="https://www.edrawsoft.com/xml/2017/SVGExtensions/" viewBox="0 0 608 348" height="348" ed:name="ページ-1" ed:hSpacing="30" xmlns="http://www.w3.org/2000/svg" ed:vSpacing="30" width="608" xmlns:xlink="http://www.w3.org/1999/xlink"><style type="text/css"><![CDATA[
g[ed\:togtopicid],g[ed\:hyperlink],g[ed\:comment],g[ed\:note] {cursor:pointer;}
g[id] {-moz-user-select: none;-ms-user-select: none;user-select: none;}
svg text::selection,svg tspan::selection{background-color: #4285f4;color: #ffffff;fill: #ffffff;}
.st3 {fill:#454545;font-family:UD デジタル 教科書体 N;font-size:14pt}
.st1 {fill:#454545;font-family:UD デジタル 教科書体 N;font-size:18pt;font-weight:bold}
.st2 {fill:#ffffff;font-family:UD デジタル 教科書体 N;font-size:14pt;font-weight:bold}
]]></style><defs><filter id="filter1"><feGaussianBlur stdDeviation="3"/></filter></defs><rect x="0" y="0" height="348" width="608" fill="#ffffff"/><path stroke="#bb43fe" id="103" stroke-linecap="round" stroke-linejoin="round" d="M-19.5,24C-20.6,26.2,-19.6,28.4,-17.8,29.2C-16,29.9,-14,28.9,-13,26.5C-10.3,20.2,-7.6,13.9,-4.4,7.9C-1.3,1.9,2.3,-3.7,6.7,-9.5C11,-15.2,16.1,-21,20.1,-25.1C24.1,-29.2,27,-31.6,30.4,-34.2C33.7,-36.8,37.4,-39.5,41.7,-41.9C46,-44.4,50.9,-46.6,54.1,-47.9C57.2,-49.2,58.7,-49.6,60.6,-50.1C62.5,-50.6,64.9,-51.2,67.3,-51.7C69.7,-52.2,72,-52.5,74.1,-52.7C76.2,-52.9,78,-52.9,79.8,-53C80.5,-53,81,-53.5,81,-54C81,-54.5,80.5,-55,79.8,-55C77.9,-55,76.1,-55,73.9,-54.9C71.8,-54.8,69.3,-54.5,66.9,-54.1C64.4,-53.7,61.9,-53.2,59.9,-52.7C57.9,-52.3,56.4,-52,53,-50.7C49.7,-49.5,44.5,-47.4,40,-45C35.4,-42.7,31.5,-40,27.9,-37.5C24.4,-34.9,21.2,-32.5,16.9,-28.4C12.6,-24.3,7.1,-18.5,2.4,-12.7C-2.3,-7,-6.3,-1.3,-9.8,4.8C-13.3,10.9,-16.4,17.4,-19.5,24z" fill="#bb43fe" transform="matrix(1,0,0,1,203.7,140.75)" ed:parentid="101" ed:tosuperid="102"/><path stroke="#ff6e26" id="105" stroke-linecap="round" stroke-linejoin="round" d="M15.8,-3.4C13.5,-4.4,11.3,-3.6,10.5,-1.9C9.7,-0.1,10.6,2.2,13,3C17.5,4.6,22.1,6.2,26.7,7.5C31.2,8.7,35.6,9.6,40.6,10.4C45.6,11.2,51.1,11.8,54.7,12.2C58.2,12.5,59.7,12.6,61.7,12.6C63.7,12.7,66.2,12.8,68.8,12.9C71.3,12.9,74,12.9,75.8,12.9C77.7,12.8,78.7,12.8,79.8,12.8C80.5,12.7,81,12.3,81,11.8C81,11.2,80.5,10.8,79.8,10.8C78.7,10.7,77.7,10.7,75.9,10.6C74,10.5,71.4,10.3,68.9,10.1C66.4,9.8,64,9.5,62,9.3C60.1,9.1,58.6,8.9,55.1,8.3C51.7,7.7,46.4,6.7,41.6,5.6C36.8,4.5,32.6,3.3,28.4,1.8C24.2,0.2,20,-1.6,15.8,-3.4z" fill="#ff6e26" transform="matrix(1,0,0,1,203.7,206.5)" ed:parentid="101" ed:tosuperid="104"/><path stroke="#7cb342" id="107" stroke-linecap="round" stroke-linejoin="round" d="M-13,-26.5C-14,-28.9,-16,-29.9,-17.8,-29.2C-19.6,-28.4,-20.6,-26.2,-19.5,-24C-16.4,-17.4,-13.3,-10.9,-9.8,-4.8C-6.3,1.3,-2.3,7,2.4,12.7C7.1,18.5,12.6,24.3,16.9,28.4C21.2,32.5,24.4,34.9,27.9,37.5C31.5,40,35.4,42.7,40,45C44.5,47.4,49.7,49.5,53,50.7C56.4,52,57.9,52.3,59.9,52.7C61.9,53.2,64.4,53.7,66.9,54.1C69.3,54.5,71.8,54.8,73.9,54.9C76.1,55,77.9,55,79.8,55C80.5,55,81,54.5,81,54C81,53.5,80.5,53,79.8,53C78,52.9,76.2,52.9,74.1,52.7C72,52.5,69.7,52.2,67.3,51.7C64.9,51.2,62.5,50.6,60.6,50.1C58.7,49.6,57.2,49.2,54.1,47.9C50.9,46.6,46,44.4,41.7,41.9C37.4,39.5,33.7,36.8,30.4,34.2C27,31.6,24.1,29.2,20.1,25.1C16.1,21,11,15.2,6.7,9.5C2.3,3.7,-1.3,-1.9,-4.4,-7.9C-7.6,-13.9,-10.3,-20.2,-13,-26.5z" fill="#7cb342" transform="matrix(1,0,0,1,203.7,248.75)" ed:parentid="101" ed:tosuperid="106"/><path stroke="#ff0000" id="109" stroke-linecap="round" stroke-linejoin="round" d="M-21.6,26.3L-10.6,26.3C5.7,-26.3,5.7,-26.3,21.6,-26.3" fill="none" transform="matrix(1,0,0,1,437.59,60.5)" ed:parentid="102" ed:tosuperid="108"/><path stroke="#1e61ff" id="111" stroke-linecap="round" stroke-linejoin="round" d="M-10.6,8.8C5.7,-8.8,5.7,-8.8,21.6,-8.8" fill="none" transform="matrix(1,0,0,1,437.59,78)" ed:parentid="102" ed:tosuperid="110"/><path stroke="#1e61ff" id="113" stroke-linecap="round" stroke-linejoin="round" d="M-10.6,-8.8C5.7,8.8,5.7,8.8,21.6,8.8" fill="none" transform="matrix(1,0,0,1,437.59,95.5)" ed:parentid="102" ed:tosuperid="112"/><path stroke="#1e61ff" id="115" stroke-linecap="round" stroke-linejoin="round" d="M-10.6,-26.3C5.7,26.3,5.7,26.3,21.6,26.3" fill="none" transform="matrix(1,0,0,1,437.59,113)" ed:parentid="102" ed:tosuperid="114"/><path stroke="#ff0000" id="117" stroke-linecap="round" stroke-linejoin="round" d="M-21.6,8.8L-10.6,8.8C5.7,-8.8,5.7,-8.8,21.6,-8.8" fill="none" transform="matrix(1,0,0,1,456.59,209.5)" ed:parentid="104" ed:tosuperid="116"/><path stroke="#1e61ff" id="119" stroke-linecap="round" stroke-linejoin="round" d="M-10.6,-8.8C5.7,8.8,5.7,8.8,21.6,8.8" fill="none" transform="matrix(1,0,0,1,456.59,227)" ed:parentid="104" ed:tosuperid="118"/><path stroke="#ff0000" id="121" stroke-linecap="round" stroke-linejoin="round" d="M-21.6,0L-10.6,0C5.7,0,5.7,0,21.6,0" fill="none" transform="matrix(1,0,0,1,437.59,302.75)" ed:parentid="106" ed:tosuperid="120"/><g id="101" ed:layout="rightmap" ed:height="57.5" ed:topictype="mainidea" ed:width="193.15999999999997" transform="matrix(1,0,0,1,27.33,166)"><path filter="url(#filter1)" fill-opacity="0.2" d="M28.8,0L164.4,0C180.3,0,193.2,12.9,193.2,28.8C193.2,44.6,180.3,57.5,164.4,57.5L28.8,57.5C12.9,57.5,0,44.6,0,28.8C0,12.9,12.9,0,28.8,0z" fill="#000000"/><path stroke="#595959" stroke-linecap="round" stroke-linejoin="round" d="M28.8,0L164.4,0C180.3,0,193.2,12.9,193.2,28.8C193.2,44.6,180.3,57.5,164.4,57.5L28.8,57.5C12.9,57.5,0,44.6,0,28.8C0,12.9,12.9,0,28.8,0z" fill="#ffffff"/><text class="st1"><tspan x="24" style="white-space:pre" y="36.3" textLength="144">コレクション</tspan></text></g><g id="102" ed:height="39.5" ed:width="132.5" transform="matrix(1,0,0,1,283.49,67)" ed:parentid="101"><path stroke="#bb43fe" stroke-linecap="round" stroke-width="3" stroke-linejoin="round" d="M4,0L128.5,0C131.2,0,132.5,1.3,132.5,4L132.5,35.5C132.5,38.2,131.2,39.5,128.5,39.5L4,39.5C1.3,39.5,0,38.2,0,35.5L0,4C0,1.3,1.3,0,4,0z" fill="#bb43fe"/><text class="st2"><tspan x="20" style="white-space:pre" y="25.8" textLength="95">シーケンス</tspan></text></g><g id="104" ed:height="39.5" ed:width="151.5" transform="matrix(1,0,0,1,283.49,198.5)" ed:parentid="101"><path stroke="#ff6e26" stroke-linecap="round" stroke-width="3" stroke-linejoin="round" d="M4,0L147.5,0C150.2,0,151.5,1.3,151.5,4L151.5,35.5C151.5,38.2,150.2,39.5,147.5,39.5L4,39.5C1.3,39.5,0,38.2,0,35.5L0,4C0,1.3,1.3,0,4,0z" fill="#ff6e26"/><text class="st2"><tspan x="20" style="white-space:pre" y="25.8" textLength="115">セット(集合)</tspan></text></g><g id="106" ed:height="39.5" ed:width="132.5" transform="matrix(1,0,0,1,283.49,283)" ed:parentid="101"><path stroke="#7cb342" stroke-linecap="round" stroke-width="3" stroke-linejoin="round" d="M4,0L128.5,0C131.2,0,132.5,1.3,132.5,4L132.5,35.5C132.5,38.2,131.2,39.5,128.5,39.5L4,39.5C1.3,39.5,0,38.2,0,35.5L0,4C0,1.3,1.3,0,4,0z" fill="#7cb342"/><text class="st2"><tspan x="20" style="white-space:pre" y="25.8" textLength="95">マッピング</tspan></text></g><g id="108" ed:height="28.5" ed:width="60" transform="matrix(1,0,0,1,459.19,20)" ed:parentid="102"><path stroke="#ff0000" stroke-linecap="round" stroke-width="2" stroke-linejoin="round" d="M4,0L56,0C58.7,0,60,1.3,60,4L60,24.5C60,27.2,58.7,28.5,56,28.5L4,28.5C1.3,28.5,0,27.2,0,24.5L0,4C0,1.3,1.3,0,4,0z" fill="none"/><text class="st3"><tspan x="10" style="white-space:pre" y="20.3" textLength="40">list</tspan></text></g><g id="110" ed:height="28.5" ed:width="69.5" transform="matrix(1,0,0,1,459.19,55)" ed:parentid="102"><path stroke="#1e61ff" stroke-linecap="round" stroke-width="2" stroke-linejoin="round" d="M4,0L65.5,0C68.2,0,69.5,1.3,69.5,4L69.5,24.5C69.5,27.2,68.2,28.5,65.5,28.5L4,28.5C1.3,28.5,0,27.2,0,24.5L0,4C0,1.3,1.3,0,4,0z" fill="none"/><text class="st3"><tspan x="10" style="white-space:pre" y="20.3" textLength="50">tuple</tspan></text></g><g id="112" ed:height="28.5" ed:width="50.5" transform="matrix(1,0,0,1,459.19,90)" ed:parentid="102"><path stroke="#1e61ff" stroke-linecap="round" stroke-width="2" stroke-linejoin="round" d="M4,0L46.5,0C49.2,0,50.5,1.3,50.5,4L50.5,24.5C50.5,27.2,49.2,28.5,46.5,28.5L4,28.5C1.3,28.5,0,27.2,0,24.5L0,4C0,1.3,1.3,0,4,0z" fill="none"/><text class="st3"><tspan x="10" style="white-space:pre" y="20.3" textLength="30">str</tspan></text></g><g id="114" ed:height="28.5" ed:width="69.5" transform="matrix(1,0,0,1,459.19,125)" ed:parentid="102"><path stroke="#1e61ff" stroke-linecap="round" stroke-width="2" stroke-linejoin="round" d="M4,0L65.5,0C68.2,0,69.5,1.3,69.5,4L69.5,24.5C69.5,27.2,68.2,28.5,65.5,28.5L4,28.5C1.3,28.5,0,27.2,0,24.5L0,4C0,1.3,1.3,0,4,0z" fill="none"/><text class="st3"><tspan x="10" style="white-space:pre" y="20.3" textLength="50">range</tspan></text></g><g id="116" ed:height="28.5" ed:width="50.5" transform="matrix(1,0,0,1,478.19,186.5)" ed:parentid="104"><path stroke="#ff0000" stroke-linecap="round" stroke-width="2" stroke-linejoin="round" d="M4,0L46.5,0C49.2,0,50.5,1.3,50.5,4L50.5,24.5C50.5,27.2,49.2,28.5,46.5,28.5L4,28.5C1.3,28.5,0,27.2,0,24.5L0,4C0,1.3,1.3,0,4,0z" fill="none"/><text class="st3"><tspan x="10" style="white-space:pre" y="20.3" textLength="30">set</tspan></text></g><g id="118" ed:height="28.5" ed:width="107.5" transform="matrix(1,0,0,1,478.19,221.5)" ed:parentid="104"><path stroke="#1e61ff" stroke-linecap="round" stroke-width="2" stroke-linejoin="round" d="M4,0L103.5,0C106.2,0,107.5,1.3,107.5,4L107.5,24.5C107.5,27.2,106.2,28.5,103.5,28.5L4,28.5C1.3,28.5,0,27.2,0,24.5L0,4C0,1.3,1.3,0,4,0z" fill="none"/><text class="st3"><tspan x="10" style="white-space:pre" y="20.3" textLength="90">frozenset</tspan></text></g><g id="120" ed:height="28.5" ed:width="60" transform="matrix(1,0,0,1,459.19,288.5)" ed:parentid="106"><path stroke="#ff0000" stroke-linecap="round" stroke-width="2" stroke-linejoin="round" d="M4,0L56,0C58.7,0,60,1.3,60,4L60,24.5C60,27.2,58.7,28.5,56,28.5L4,28.5C1.3,28.5,0,27.2,0,24.5L0,4C0,1.3,1.3,0,4,0z" fill="none"/><text class="st3"><tspan x="10" style="white-space:pre" y="20.3" textLength="40">dict</tspan></text></g></svg>