<svg viewBox="0 0 320 153" xmlns:xlink="http://www.w3.org/1999/xlink" width="320" xmlns="http://www.w3.org/2000/svg" height="153"><defs/><g transform="translate(-157.63,-503.57)"><path id="shape1" stroke="#101843" transform="translate(204.652000,504.567500)" d="M.0,75.6C.0,33.8,33.8,.0,75.6,.0C89.4,.0,102.3,3.7,113.4,10.1C90.8,23.2,75.6,47.6,75.6,75.6C75.6,103.6,90.8,128.0,113.4,141.1C102.3,147.5,89.4,151.2,75.6,151.2C33.8,151.2,.0,117.3,.0,75.6z" fill="#88b0f5" fill-rule="nonzero" stroke-width="1"/><path id="shape2" stroke="#101843" transform="translate(318.038000,504.567500)" d="M.0,10.1C11.1,3.7,24.0,.0,37.8,.0C79.5,.0,113.4,33.8,113.4,75.6C113.4,117.3,79.5,151.2,37.8,151.2C24.0,151.2,11.1,147.5,.0,141.1C22.6,128.0,37.8,103.6,37.8,75.6C37.8,47.6,22.6,23.2,.0,10.1z" fill="none" stroke-width="1"/><g id="shape3" transform="translate(294.803000,554.883700)"><text xml:space="preserve" style="fill:#191919;font-family:Bahnschrift Light,PingFang SC,Mircrosoft YaHei,Arial;font-size:44.00pt"><tspan y="33.0" x="81.8" textLength="19.0" style="font-size:22.00pt">B</tspan></text></g><g id="shape4" transform="translate(157.625000,554.883700)"><text xml:space="preserve" style="fill:#191919;font-family:Bahnschrift Light,PingFang SC,Mircrosoft YaHei,Arial;font-size:44.00pt"><tspan y="33.0" x="81.8" textLength="19.0" style="font-size:22.00pt">A</tspan></text></g></g></svg>