<svg viewBox="0 0 309 153" xmlns:xlink="http://www.w3.org/1999/xlink" width="309" xmlns="http://www.w3.org/2000/svg" height="153"><defs/><g transform="translate(-449.76,-324.04)"><g id="shape1" transform="translate(449.764000,377.952700)"><text xml:space="preserve" style="fill:#191919;font-family:Bahnschrift Light,PingFang SC,Mircrosoft YaHei,Arial;font-size:44.00pt"><tspan y="33.0" x="81.8" textLength="19.0" style="font-size:22.00pt">A</tspan></text></g><g id="shape2" transform="translate(576.378000,377.952800)"><text xml:space="preserve" style="fill:#191919;font-family:Bahnschrift Light,PingFang SC,Mircrosoft YaHei,Arial;font-size:44.00pt"><tspan y="33.0" x="81.8" textLength="19.0" style="font-size:22.00pt">B</tspan></text></g><path id="shape3" stroke="#101843" transform="translate(491.338000,325.039500)" d="M.0,75.6C.0,33.8,33.8,.0,75.6,.0C89.4,.0,102.3,3.7,113.4,10.1C124.5,3.7,137.4,.0,151.2,.0C192.9,.0,226.8,33.8,226.8,75.6C226.8,117.3,192.9,151.2,151.2,151.2C137.4,151.2,124.5,147.5,113.4,141.1C102.3,147.5,89.4,151.2,75.6,151.2C33.8,151.2,.0,117.3,.0,75.6z" fill="none" stroke-width="1"/><path id="shape4" stroke="#101843" transform="translate(566.929000,335.152500)" d="M37.8,.0C60.4,13.1,75.6,37.5,75.6,65.5C75.6,93.5,60.4,117.9,37.8,131.0C15.2,117.9,.0,93.5,.0,65.5C.0,37.5,15.2,13.1,37.8,.0z" fill="#88b0f5" fill-rule="nonzero" stroke-width="1"/></g></svg>