<svg xmlns:xlink="http://www.w3.org/1999/xlink" viewBox="0 0 321 153.181" height="153" xmlns="http://www.w3.org/2000/svg" width="321"><defs/><g transform="translate(1.000000,1.000000)" id="group1"><path fill="#88b0f5" fill-rule="nonzero" transform="translate(45.354331,0.000000)" id="shape2" d="M.0,75.6C.0,33.8,33.8,.0,75.6,.0C89.4,.0,102.3,3.7,113.4,10.1C124.5,3.7,137.4,.0,151.2,.0C192.9,.0,226.8,33.8,226.8,75.6C226.8,117.3,192.9,151.2,151.2,151.2C137.4,151.2,124.5,147.5,113.4,141.1C102.3,147.5,89.4,151.2,75.6,151.2C33.8,151.2,.0,117.3,.0,75.6z" stroke="#101843" stroke-width="1"/><path fill="none" transform="translate(120.945106,10.112873)" id="shape3" d="M37.8,.0C60.4,13.1,75.6,37.5,75.6,65.5C75.6,93.5,60.4,117.9,37.8,131.0C15.2,117.9,.0,93.5,.0,65.5C.0,37.5,15.2,13.1,37.8,.0z" stroke="#101843" stroke-width="1"/><g transform="translate(-0.000000,55.278193)" id="shape4"><text xml:space="preserve" style="fill:#191919;font-family:Bahnschrift Light,PingFang SC,Mircrosoft YaHei,Arial;font-size:44.00pt"><tspan style="font-size:22.00pt" textLength="19.0" x="81.8" y="33.0">A</tspan></text></g><g transform="translate(136.062992,55.278172)" id="shape5"><text xml:space="preserve" style="fill:#191919;font-family:Bahnschrift Light,PingFang SC,Mircrosoft YaHei,Arial;font-size:44.00pt"><tspan style="font-size:22.00pt" textLength="19.0" x="81.8" y="33.0">B</tspan></text></g></g></svg>