<svg height="321" xmlns="http://www.w3.org/2000/svg" width="460" xmlns:xlink="http://www.w3.org/1999/xlink" viewBox="0 0 460 321"><defs/><g transform="translate(-824.37,-624.38)"><g id="table1" transform="translate(849.954265,624.882102)"><g><path stroke="#a0a0a4" d="M.0,.0L204.0,.0L204.0,40.0L.0,40.0L.0,.0z" stroke-width="1" fill="#ffb713"/><text xml:space="preserve" style="fill:#191919;font-family:BIZ UDゴシック,PingFang SC,Mircrosoft YaHei,Arial;font-size:24.00pt"><tspan x="54.0" y="26.0" style="font-size:12.00pt" textLength="96.0">スタック領域</tspan></text></g><g><path stroke="#a0a0a4" d="M204.0,.0L230.4,.0L230.4,320.0L204.0,320.0L204.0,.0z" stroke-width="1" fill="#ffffff"/><text xml:space="preserve" style="fill:#191919;font-family:BIZ UDゴシック,PingFang SC,Mircrosoft YaHei,Arial;font-size:24.00pt"/></g><g><path stroke="#a0a0a4" d="M230.4,.0L434.4,.0L434.4,40.0L230.4,40.0L230.4,.0z" stroke-width="1" fill="#c351e8"/><text xml:space="preserve" style="fill:#191919;font-family:BIZ UDゴシック,PingFang SC,Mircrosoft YaHei,Arial;font-size:24.00pt"><tspan x="292.4" y="26.0" style="font-size:12.00pt" textLength="80.0">ヒープ領域</tspan></text></g><g><path stroke="#a0a0a4" d="M.0,40.0L102.0,40.0L102.0,80.0L.0,80.0L.0,40.0z" stroke-width="1" fill="#fdff85"/><text xml:space="preserve" style="fill:#191919;font-family:BIZ UDゴシック,PingFang SC,Mircrosoft YaHei,Arial;font-size:24.00pt"><tspan x="19.0" y="66.0" style="font-size:12.00pt" textLength="64.0">アドレス</tspan></text></g><g><path stroke="#a0a0a4" d="M102.0,40.0L204.0,40.0L204.0,80.0L102.0,80.0L102.0,40.0z" stroke-width="1" fill="#fdff85"/><text xml:space="preserve" style="fill:#191919;font-family:BIZ UDゴシック,PingFang SC,Mircrosoft YaHei,Arial;font-size:24.00pt"><tspan x="145.0" y="66.0" style="font-size:12.00pt" textLength="16.0">値</tspan></text></g><g><path stroke="#a0a0a4" d="M230.4,40.0L332.4,40.0L332.4,80.0L230.4,80.0L230.4,40.0z" stroke-width="1" fill="#ab91f8"/><text xml:space="preserve" style="fill:#191919;font-family:BIZ UDゴシック,PingFang SC,Mircrosoft YaHei,Arial;font-size:24.00pt"><tspan x="249.4" y="66.0" style="font-size:12.00pt" textLength="64.0">アドレス</tspan></text></g><g><path stroke="#a0a0a4" d="M332.4,40.0L434.4,40.0L434.4,80.0L332.4,80.0L332.4,40.0z" stroke-width="1" fill="#ab91f8"/><text xml:space="preserve" style="fill:#191919;font-family:BIZ UDゴシック,PingFang SC,Mircrosoft YaHei,Arial;font-size:24.00pt"><tspan x="375.4" y="66.0" style="font-size:12.00pt" textLength="16.0">値</tspan></text></g><g><path stroke="#a0a0a4" d="M.0,80.0L102.0,80.0L102.0,120.0L.0,120.0L.0,80.0z" stroke-width="1" fill="#fdff85"/><text xml:space="preserve" style="fill:#191919;font-family:BIZ UDゴシック,PingFang SC,Mircrosoft YaHei,Arial;font-size:24.00pt"><tspan x="43.0" y="106.0" style="font-size:12.00pt" textLength="16.0">…</tspan></text></g><g><path stroke="#a0a0a4" d="M102.0,80.0L204.0,80.0L204.0,120.0L102.0,120.0L102.0,80.0z" stroke-width="1" fill="#fdff85"/><text xml:space="preserve" style="fill:#191919;font-family:BIZ UDゴシック,PingFang SC,Mircrosoft YaHei,Arial;font-size:24.00pt"><tspan x="145.0" y="106.0" style="font-size:12.00pt" textLength="16.0">…</tspan></text></g><g><path stroke="#a0a0a4" d="M230.4,80.0L332.4,80.0L332.4,120.0L230.4,120.0L230.4,80.0z" stroke-width="1" fill="#ab91f8"/><text xml:space="preserve" style="fill:#191919;font-family:BIZ UDゴシック,PingFang SC,Mircrosoft YaHei,Arial;font-size:24.00pt"><tspan x="273.4" y="106.0" style="font-size:12.00pt" textLength="16.0">…</tspan></text></g><g><path stroke="#a0a0a4" d="M332.4,80.0L434.4,80.0L434.4,120.0L332.4,120.0L332.4,80.0z" stroke-width="1" fill="#ab91f8"/><text xml:space="preserve" style="fill:#191919;font-family:BIZ UDゴシック,PingFang SC,Mircrosoft YaHei,Arial;font-size:24.00pt"><tspan x="375.4" y="106.0" style="font-size:12.00pt" textLength="16.0">…</tspan></text></g><g><path stroke="#a0a0a4" d="M.0,120.0L102.0,120.0L102.0,160.0L.0,160.0L.0,120.0z" stroke-width="1" fill="#fdff85"/><text xml:space="preserve" style="fill:#191919;font-family:BIZ UDゴシック,PingFang SC,Mircrosoft YaHei,Arial;font-size:24.00pt"><tspan x="31.0" y="146.0" style="font-size:12.00pt" textLength="40.0">10238</tspan></text></g><g><path stroke="#a0a0a4" d="M102.0,120.0L204.0,120.0L204.0,160.0L102.0,160.0L102.0,120.0z" stroke-width="1" fill="#fdff85"/><text xml:space="preserve" style="fill:#191919;font-family:BIZ UDゴシック,PingFang SC,Mircrosoft YaHei,Arial;font-size:24.00pt"><tspan x="133.0" y="146.0" style="font-size:12.00pt" textLength="40.0">22486</tspan></text></g><g><path stroke="#a0a0a4" d="M230.4,120.0L332.4,120.0L332.4,160.0L230.4,160.0L230.4,120.0z" stroke-width="1" fill="#ab91f8"/><text xml:space="preserve" style="fill:#191919;font-family:BIZ UDゴシック,PingFang SC,Mircrosoft YaHei,Arial;font-size:24.00pt"><tspan x="261.4" y="146.0" style="font-size:12.00pt" textLength="40.0">22486</tspan></text></g><g><path stroke="#a0a0a4" d="M332.4,120.0L434.4,120.0L434.4,160.0L332.4,160.0L332.4,120.0z" stroke-width="1" fill="#ab91f8"/><text xml:space="preserve" style="fill:#191919;font-family:BIZ UDゴシック,PingFang SC,Mircrosoft YaHei,Arial;font-size:24.00pt"><tspan x="359.4" y="146.0" style="font-size:12.00pt" textLength="48.0">[1, 3]</tspan></text></g><g><path stroke="#a0a0a4" d="M.0,160.0L102.0,160.0L102.0,200.0L.0,200.0L.0,160.0z" stroke-width="1" fill="#fdff85"/><text xml:space="preserve" style="fill:#191919;font-family:BIZ UDゴシック,PingFang SC,Mircrosoft YaHei,Arial;font-size:24.00pt"><tspan x="31.0" y="186.0" style="font-size:12.00pt" textLength="40.0">11489</tspan></text></g><g><path stroke="#a0a0a4" d="M102.0,160.0L204.0,160.0L204.0,200.0L102.0,200.0L102.0,160.0z" stroke-width="1" fill="#fdff85"/><text xml:space="preserve" style="fill:#191919;font-family:BIZ UDゴシック,PingFang SC,Mircrosoft YaHei,Arial;font-size:24.00pt"><tspan x="133.0" y="186.0" style="font-size:12.00pt" textLength="40.0">22486</tspan></text></g><g><path stroke="#a0a0a4" d="M230.4,160.0L332.4,160.0L332.4,200.0L230.4,200.0L230.4,160.0z" stroke-width="1" fill="#ab91f8"/><text xml:space="preserve" style="fill:#191919;font-family:BIZ UDゴシック,PingFang SC,Mircrosoft YaHei,Arial;font-size:24.00pt"><tspan x="273.4" y="186.0" style="font-size:12.00pt" textLength="16.0">…</tspan></text></g><g><path stroke="#a0a0a4" d="M332.4,160.0L434.4,160.0L434.4,200.0L332.4,200.0L332.4,160.0z" stroke-width="1" fill="#ab91f8"/><text xml:space="preserve" style="fill:#191919;font-family:BIZ UDゴシック,PingFang SC,Mircrosoft YaHei,Arial;font-size:24.00pt"><tspan x="375.4" y="186.0" style="font-size:12.00pt" textLength="16.0">…</tspan></text></g><g><path stroke="#a0a0a4" d="M.0,200.0L102.0,200.0L102.0,240.0L.0,240.0L.0,200.0z" stroke-width="1" fill="#fdff85"/><text xml:space="preserve" style="fill:#191919;font-family:BIZ UDゴシック,PingFang SC,Mircrosoft YaHei,Arial;font-size:24.00pt"><tspan x="43.0" y="226.0" style="font-size:12.00pt" textLength="16.0">…</tspan></text></g><g><path stroke="#a0a0a4" d="M102.0,200.0L204.0,200.0L204.0,240.0L102.0,240.0L102.0,200.0z" stroke-width="1" fill="#fdff85"/><text xml:space="preserve" style="fill:#191919;font-family:BIZ UDゴシック,PingFang SC,Mircrosoft YaHei,Arial;font-size:24.00pt"><tspan x="145.0" y="226.0" style="font-size:12.00pt" textLength="16.0">…</tspan></text></g><g><path stroke="#a0a0a4" d="M230.4,200.0L332.4,200.0L332.4,240.0L230.4,240.0L230.4,200.0z" stroke-width="1" fill="#ab91f8"/><text xml:space="preserve" style="fill:#191919;font-family:BIZ UDゴシック,PingFang SC,Mircrosoft YaHei,Arial;font-size:24.00pt"><tspan x="273.4" y="226.0" style="font-size:12.00pt" textLength="16.0">…</tspan></text></g><g><path stroke="#a0a0a4" d="M332.4,200.0L434.4,200.0L434.4,240.0L332.4,240.0L332.4,200.0z" stroke-width="1" fill="#ab91f8"/><text xml:space="preserve" style="fill:#191919;font-family:BIZ UDゴシック,PingFang SC,Mircrosoft YaHei,Arial;font-size:24.00pt"><tspan x="375.4" y="226.0" style="font-size:12.00pt" textLength="16.0">…</tspan></text></g><g><path stroke="#a0a0a4" d="M.0,240.0L102.0,240.0L102.0,280.0L.0,280.0L.0,240.0z" stroke-width="1" fill="#fdff85"/><text xml:space="preserve" style="fill:#191919;font-family:BIZ UDゴシック,PingFang SC,Mircrosoft YaHei,Arial;font-size:24.00pt"><tspan x="43.0" y="266.0" style="font-size:12.00pt" textLength="16.0">…</tspan></text></g><g><path stroke="#a0a0a4" d="M102.0,240.0L204.0,240.0L204.0,280.0L102.0,280.0L102.0,240.0z" stroke-width="1" fill="#fdff85"/><text xml:space="preserve" style="fill:#191919;font-family:BIZ UDゴシック,PingFang SC,Mircrosoft YaHei,Arial;font-size:24.00pt"><tspan x="145.0" y="266.0" style="font-size:12.00pt" textLength="16.0">…</tspan></text></g><g><path stroke="#a0a0a4" d="M230.4,240.0L332.4,240.0L332.4,280.0L230.4,280.0L230.4,240.0z" stroke-width="1" fill="#ab91f8"/><text xml:space="preserve" style="fill:#191919;font-family:BIZ UDゴシック,PingFang SC,Mircrosoft YaHei,Arial;font-size:24.00pt"><tspan x="273.4" y="266.0" style="font-size:12.00pt" textLength="16.0">…</tspan></text></g><g><path stroke="#a0a0a4" d="M332.4,240.0L434.4,240.0L434.4,280.0L332.4,280.0L332.4,240.0z" stroke-width="1" fill="#ab91f8"/><text xml:space="preserve" style="fill:#191919;font-family:BIZ UDゴシック,PingFang SC,Mircrosoft YaHei,Arial;font-size:24.00pt"><tspan x="375.4" y="266.0" style="font-size:12.00pt" textLength="16.0">…</tspan></text></g><g><path stroke="#a0a0a4" d="M.0,280.0L102.0,280.0L102.0,320.0L.0,320.0L.0,280.0z" stroke-width="1" fill="#fdff85"/><text xml:space="preserve" style="fill:#191919;font-family:BIZ UDゴシック,PingFang SC,Mircrosoft YaHei,Arial;font-size:24.00pt"><tspan x="43.0" y="306.0" style="font-size:12.00pt" textLength="16.0">…</tspan></text></g><g><path stroke="#a0a0a4" d="M102.0,280.0L204.0,280.0L204.0,320.0L102.0,320.0L102.0,280.0z" stroke-width="1" fill="#fdff85"/><text xml:space="preserve" style="fill:#191919;font-family:BIZ UDゴシック,PingFang SC,Mircrosoft YaHei,Arial;font-size:24.00pt"><tspan x="145.0" y="306.0" style="font-size:12.00pt" textLength="16.0">…</tspan></text></g><g><path stroke="#a0a0a4" d="M230.4,280.0L332.4,280.0L332.4,320.0L230.4,320.0L230.4,280.0z" stroke-width="1" fill="#ab91f8"/><text xml:space="preserve" style="fill:#191919;font-family:BIZ UDゴシック,PingFang SC,Mircrosoft YaHei,Arial;font-size:24.00pt"><tspan x="273.4" y="306.0" style="font-size:12.00pt" textLength="16.0">…</tspan></text></g><g><path stroke="#a0a0a4" d="M332.4,280.0L434.4,280.0L434.4,320.0L332.4,320.0L332.4,280.0z" stroke-width="1" fill="#ab91f8"/><text xml:space="preserve" style="fill:#191919;font-family:BIZ UDゴシック,PingFang SC,Mircrosoft YaHei,Arial;font-size:24.00pt"><tspan x="375.4" y="306.0" style="font-size:12.00pt" textLength="16.0">…</tspan></text></g></g><g id="shape2" transform="translate(827.717165,742.070502)"><text xml:space="preserve" style="fill:#191919;font-family:Arial,PingFang SC,Mircrosoft YaHei,Arial;font-size:40.00pt"><tspan x="0.9" y="31.0" style="font-size:20.00pt" textLength="18.0">A</tspan></text></g><path stroke="#101843" d="M.0,27.4C.0,12.3,21.9,.0,49.0,.0C76.1,.0,98.0,12.3,98.0,27.4C98.0,42.5,76.1,54.8,49.0,54.8C21.9,54.8,.0,42.5,.0,27.4z" id="shape3" transform="translate(952.097165,736.093702)" stroke-width="1" fill="none"/><g id="shape4" transform="translate(1028.982247,740.957164)"><path stroke="#191919" d="M.0,.0C10.1,-8.2,20.2,-16.5,32.1,-20.8C44.0,-25.2,57.8,-25.6,69.5,-21.2C79.7,-17.5,88.3,-10.0,96.7,-2.1" stroke-width="1" fill="none"/><path stroke="#191919" d="M98.3,-4.7L100.6,1.6L94.2,-0.4L98.3,-4.7" stroke-linecap="round" stroke-width="1" fill="#191919"/></g><g id="shape5" transform="translate(827.717165,786.142502)"><text xml:space="preserve" style="fill:#191919;font-family:Arial,PingFang SC,Mircrosoft YaHei,Arial;font-size:40.00pt"><tspan x="0.9" y="31.0" style="font-size:20.00pt" textLength="18.0">B</tspan></text></g><path stroke="#101843" d="M.0,27.4C.0,12.3,21.9,.0,49.0,.0C76.1,.0,98.0,12.3,98.0,27.4C98.0,42.5,76.1,54.8,49.0,54.8C21.9,54.8,.0,42.5,.0,27.4z" id="shape6" transform="translate(952.097165,780.164702)" stroke-width="1" fill="none"/><g id="shape7" transform="translate(1050.099265,807.551102)"><path stroke="#191919" d="M.0,.0C8.1,-2.4,16.1,-4.8,22.7,-7.5C29.3,-10.2,34.5,-13.2,39.9,-17.6C44.3,-21.1,48.8,-25.6,53.4,-30.1" stroke-width="1" fill="none"/><path stroke="#191919" d="M50.6,-31.6L57.0,-33.7L54.9,-27.3L50.6,-31.6" stroke-linecap="round" stroke-width="1" fill="#191919"/></g></g></svg>