<svg width="460" viewBox="0 0 460 321" xmlns:xlink="http://www.w3.org/1999/xlink" xmlns="http://www.w3.org/2000/svg" height="321"><defs/><g transform="translate(-2013.38,-207.31)"><g transform="translate(2038.964550,207.809449)" id="table1"><g><path d="M.0,.0L204.0,.0L204.0,40.0L.0,40.0L.0,.0z" fill="#ffb713" stroke="#a0a0a4" stroke-width="1"/><text xml:space="preserve" style="fill:#191919;font-family:BIZ UDゴシック,PingFang SC,Mircrosoft YaHei,Arial;font-size:24.00pt"><tspan textLength="96.0" y="26.0" x="54.0" style="font-size:12.00pt">スタック領域</tspan></text></g><g><path d="M204.0,.0L230.4,.0L230.4,320.0L204.0,320.0L204.0,.0z" fill="#ffffff" stroke="#a0a0a4" stroke-width="1"/><text xml:space="preserve" style="fill:#191919;font-family:BIZ UDゴシック,PingFang SC,Mircrosoft YaHei,Arial;font-size:24.00pt"/></g><g><path d="M230.4,.0L434.4,.0L434.4,40.0L230.4,40.0L230.4,.0z" fill="#c351e8" stroke="#a0a0a4" stroke-width="1"/><text xml:space="preserve" style="fill:#191919;font-family:BIZ UDゴシック,PingFang SC,Mircrosoft YaHei,Arial;font-size:24.00pt"><tspan textLength="80.0" y="26.0" x="292.4" style="font-size:12.00pt">ヒープ領域</tspan></text></g><g><path d="M.0,40.0L102.0,40.0L102.0,80.0L.0,80.0L.0,40.0z" fill="#fdff85" stroke="#a0a0a4" stroke-width="1"/><text xml:space="preserve" style="fill:#191919;font-family:BIZ UDゴシック,PingFang SC,Mircrosoft YaHei,Arial;font-size:24.00pt"><tspan textLength="64.0" y="66.0" x="19.0" style="font-size:12.00pt">アドレス</tspan></text></g><g><path d="M102.0,40.0L204.0,40.0L204.0,80.0L102.0,80.0L102.0,40.0z" fill="#fdff85" stroke="#a0a0a4" stroke-width="1"/><text xml:space="preserve" style="fill:#191919;font-family:BIZ UDゴシック,PingFang SC,Mircrosoft YaHei,Arial;font-size:24.00pt"><tspan textLength="16.0" y="66.0" x="145.0" style="font-size:12.00pt">値</tspan></text></g><g><path d="M230.4,40.0L332.4,40.0L332.4,80.0L230.4,80.0L230.4,40.0z" fill="#ab91f8" stroke="#a0a0a4" stroke-width="1"/><text xml:space="preserve" style="fill:#191919;font-family:BIZ UDゴシック,PingFang SC,Mircrosoft YaHei,Arial;font-size:24.00pt"><tspan textLength="64.0" y="66.0" x="249.4" style="font-size:12.00pt">アドレス</tspan></text></g><g><path d="M332.4,40.0L434.4,40.0L434.4,80.0L332.4,80.0L332.4,40.0z" fill="#ab91f8" stroke="#a0a0a4" stroke-width="1"/><text xml:space="preserve" style="fill:#191919;font-family:BIZ UDゴシック,PingFang SC,Mircrosoft YaHei,Arial;font-size:24.00pt"><tspan textLength="16.0" y="66.0" x="375.4" style="font-size:12.00pt">値</tspan></text></g><g><path d="M.0,80.0L102.0,80.0L102.0,120.0L.0,120.0L.0,80.0z" fill="#fdff85" stroke="#a0a0a4" stroke-width="1"/><text xml:space="preserve" style="fill:#191919;font-family:BIZ UDゴシック,PingFang SC,Mircrosoft YaHei,Arial;font-size:24.00pt"><tspan textLength="16.0" y="106.0" x="43.0" style="font-size:12.00pt">…</tspan></text></g><g><path d="M102.0,80.0L204.0,80.0L204.0,120.0L102.0,120.0L102.0,80.0z" fill="#fdff85" stroke="#a0a0a4" stroke-width="1"/><text xml:space="preserve" style="fill:#191919;font-family:BIZ UDゴシック,PingFang SC,Mircrosoft YaHei,Arial;font-size:24.00pt"><tspan textLength="16.0" y="106.0" x="145.0" style="font-size:12.00pt">…</tspan></text></g><g><path d="M230.4,80.0L332.4,80.0L332.4,120.0L230.4,120.0L230.4,80.0z" fill="#ab91f8" stroke="#a0a0a4" stroke-width="1"/><text xml:space="preserve" style="fill:#191919;font-family:BIZ UDゴシック,PingFang SC,Mircrosoft YaHei,Arial;font-size:24.00pt"><tspan textLength="40.0" y="106.0" x="261.4" style="font-size:12.00pt">21486</tspan></text></g><g><path d="M332.4,80.0L434.4,80.0L434.4,120.0L332.4,120.0L332.4,80.0z" fill="#ab91f8" stroke="#a0a0a4" stroke-width="1"/><text xml:space="preserve" style="fill:#191919;font-family:BIZ UDゴシック,PingFang SC,Mircrosoft YaHei,Arial;font-size:18.00pt"><tspan textLength="84.0" y="105.0" x="341.4" style="font-size:9.00pt">[24305, 23487]</tspan></text></g><g><path d="M.0,120.0L102.0,120.0L102.0,160.0L.0,160.0L.0,120.0z" fill="#fdff85" stroke="#a0a0a4" stroke-width="1"/><text xml:space="preserve" style="fill:#191919;font-family:BIZ UDゴシック,PingFang SC,Mircrosoft YaHei,Arial;font-size:24.00pt"><tspan textLength="40.0" y="146.0" x="31.0" style="font-size:12.00pt">10238</tspan></text></g><g><path d="M102.0,120.0L204.0,120.0L204.0,160.0L102.0,160.0L102.0,120.0z" fill="#fdff85" stroke="#a0a0a4" stroke-width="1"/><text xml:space="preserve" style="fill:#191919;font-family:BIZ UDゴシック,PingFang SC,Mircrosoft YaHei,Arial;font-size:24.00pt"><tspan textLength="40.0" y="146.0" x="133.0" style="font-size:12.00pt">21486</tspan></text></g><g><path d="M230.4,120.0L332.4,120.0L332.4,160.0L230.4,160.0L230.4,120.0z" fill="#ab91f8" stroke="#a0a0a4" stroke-width="1"/><text xml:space="preserve" style="fill:#191919;font-family:BIZ UDゴシック,PingFang SC,Mircrosoft YaHei,Arial;font-size:24.00pt"><tspan textLength="16.0" y="146.0" x="273.4" style="font-size:12.00pt">…</tspan></text></g><g><path d="M332.4,120.0L434.4,120.0L434.4,160.0L332.4,160.0L332.4,120.0z" fill="#ab91f8" stroke="#a0a0a4" stroke-width="1"/><text xml:space="preserve" style="fill:#191919;font-family:BIZ UDゴシック,PingFang SC,Mircrosoft YaHei,Arial;font-size:24.00pt"><tspan textLength="16.0" y="146.0" x="375.4" style="font-size:12.00pt">…</tspan></text></g><g><path d="M.0,160.0L102.0,160.0L102.0,200.0L.0,200.0L.0,160.0z" fill="#fdff85" stroke="#a0a0a4" stroke-width="1"/><text xml:space="preserve" style="fill:#191919;font-family:BIZ UDゴシック,PingFang SC,Mircrosoft YaHei,Arial;font-size:24.00pt"><tspan textLength="40.0" y="186.0" x="31.0" style="font-size:12.00pt">11489</tspan></text></g><g><path d="M102.0,160.0L204.0,160.0L204.0,200.0L102.0,200.0L102.0,160.0z" fill="#fdff85" stroke="#a0a0a4" stroke-width="1"/><text xml:space="preserve" style="fill:#191919;font-family:BIZ UDゴシック,PingFang SC,Mircrosoft YaHei,Arial;font-size:24.00pt"><tspan textLength="40.0" y="186.0" x="133.0" style="font-size:12.00pt">21486</tspan></text></g><g><path d="M230.4,160.0L332.4,160.0L332.4,200.0L230.4,200.0L230.4,160.0z" fill="#ab91f8" stroke="#a0a0a4" stroke-width="1"/><text xml:space="preserve" style="fill:#191919;font-family:BIZ UDゴシック,PingFang SC,Mircrosoft YaHei,Arial;font-size:24.00pt"><tspan textLength="40.0" y="186.0" x="261.4" style="font-size:12.00pt">23487</tspan></text></g><g><path d="M332.4,160.0L434.4,160.0L434.4,200.0L332.4,200.0L332.4,160.0z" fill="#ab91f8" stroke="#a0a0a4" stroke-width="1"/><text xml:space="preserve" style="fill:#191919;font-family:BIZ UDゴシック,PingFang SC,Mircrosoft YaHei,Arial;font-size:24.00pt"><tspan textLength="8.0" y="186.0" x="379.4" style="font-size:12.00pt">3</tspan></text></g><g><path d="M.0,200.0L102.0,200.0L102.0,240.0L.0,240.0L.0,200.0z" fill="#fdff85" stroke="#a0a0a4" stroke-width="1"/><text xml:space="preserve" style="fill:#191919;font-family:BIZ UDゴシック,PingFang SC,Mircrosoft YaHei,Arial;font-size:24.00pt"><tspan textLength="16.0" y="226.0" x="43.0" style="font-size:12.00pt">…</tspan></text></g><g><path d="M102.0,200.0L204.0,200.0L204.0,240.0L102.0,240.0L102.0,200.0z" fill="#fdff85" stroke="#a0a0a4" stroke-width="1"/><text xml:space="preserve" style="fill:#191919;font-family:BIZ UDゴシック,PingFang SC,Mircrosoft YaHei,Arial;font-size:24.00pt"><tspan textLength="16.0" y="226.0" x="145.0" style="font-size:12.00pt">…</tspan></text></g><g><path d="M230.4,200.0L332.4,200.0L332.4,240.0L230.4,240.0L230.4,200.0z" fill="#ab91f8" stroke="#a0a0a4" stroke-width="1"/><text xml:space="preserve" style="fill:#191919;font-family:BIZ UDゴシック,PingFang SC,Mircrosoft YaHei,Arial;font-size:24.00pt"><tspan textLength="40.0" y="226.0" x="261.4" style="font-size:12.00pt">24305</tspan></text></g><g><path d="M332.4,200.0L434.4,200.0L434.4,240.0L332.4,240.0L332.4,200.0z" fill="#ab91f8" stroke="#a0a0a4" stroke-width="1"/><text xml:space="preserve" style="fill:#191919;font-family:BIZ UDゴシック,PingFang SC,Mircrosoft YaHei,Arial;font-size:24.00pt"><tspan textLength="8.0" y="226.0" x="379.4" style="font-size:12.00pt">1</tspan></text></g><g><path d="M.0,240.0L102.0,240.0L102.0,280.0L.0,280.0L.0,240.0z" fill="#fdff85" stroke="#a0a0a4" stroke-width="1"/><text xml:space="preserve" style="fill:#191919;font-family:BIZ UDゴシック,PingFang SC,Mircrosoft YaHei,Arial;font-size:24.00pt"><tspan textLength="40.0" y="266.0" x="31.0" style="font-size:12.00pt">12964</tspan></text></g><g><path d="M102.0,240.0L204.0,240.0L204.0,280.0L102.0,280.0L102.0,240.0z" fill="#fdff85" stroke="#a0a0a4" stroke-width="1"/><text xml:space="preserve" style="fill:#191919;font-family:BIZ UDゴシック,PingFang SC,Mircrosoft YaHei,Arial;font-size:24.00pt"><tspan textLength="40.0" y="266.0" x="133.0" style="font-size:12.00pt">23487</tspan></text></g><g><path d="M230.4,240.0L332.4,240.0L332.4,280.0L230.4,280.0L230.4,240.0z" fill="#ab91f8" stroke="#a0a0a4" stroke-width="1"/><text xml:space="preserve" style="fill:#191919;font-family:BIZ UDゴシック,PingFang SC,Mircrosoft YaHei,Arial;font-size:24.00pt"><tspan textLength="16.0" y="266.0" x="273.4" style="font-size:12.00pt">…</tspan></text></g><g><path d="M332.4,240.0L434.4,240.0L434.4,280.0L332.4,280.0L332.4,240.0z" fill="#ab91f8" stroke="#a0a0a4" stroke-width="1"/><text xml:space="preserve" style="fill:#191919;font-family:BIZ UDゴシック,PingFang SC,Mircrosoft YaHei,Arial;font-size:24.00pt"><tspan textLength="16.0" y="266.0" x="375.4" style="font-size:12.00pt">…</tspan></text></g><g><path d="M.0,280.0L102.0,280.0L102.0,320.0L.0,320.0L.0,280.0z" fill="#fdff85" stroke="#a0a0a4" stroke-width="1"/><text xml:space="preserve" style="fill:#191919;font-family:BIZ UDゴシック,PingFang SC,Mircrosoft YaHei,Arial;font-size:24.00pt"><tspan textLength="16.0" y="306.0" x="43.0" style="font-size:12.00pt">…</tspan></text></g><g><path d="M102.0,280.0L204.0,280.0L204.0,320.0L102.0,320.0L102.0,280.0z" fill="#fdff85" stroke="#a0a0a4" stroke-width="1"/><text xml:space="preserve" style="fill:#191919;font-family:BIZ UDゴシック,PingFang SC,Mircrosoft YaHei,Arial;font-size:24.00pt"><tspan textLength="16.0" y="306.0" x="145.0" style="font-size:12.00pt">…</tspan></text></g><g><path d="M230.4,280.0L332.4,280.0L332.4,320.0L230.4,320.0L230.4,280.0z" fill="#ab91f8" stroke="#a0a0a4" stroke-width="1"/><text xml:space="preserve" style="fill:#191919;font-family:BIZ UDゴシック,PingFang SC,Mircrosoft YaHei,Arial;font-size:24.00pt"><tspan textLength="16.0" y="306.0" x="273.4" style="font-size:12.00pt">…</tspan></text></g><g><path d="M332.4,280.0L434.4,280.0L434.4,320.0L332.4,320.0L332.4,280.0z" fill="#ab91f8" stroke="#a0a0a4" stroke-width="1"/><text xml:space="preserve" style="fill:#191919;font-family:BIZ UDゴシック,PingFang SC,Mircrosoft YaHei,Arial;font-size:24.00pt"><tspan textLength="16.0" y="306.0" x="375.4" style="font-size:12.00pt">…</tspan></text></g></g><g transform="translate(2016.727450,325.001849)" id="shape2"><text xml:space="preserve" style="fill:#191919;font-family:Arial,PingFang SC,Mircrosoft YaHei,Arial;font-size:40.00pt"><tspan textLength="18.0" y="31.0" x="0.9" style="font-size:20.00pt">A</tspan></text></g><path transform="translate(2141.107450,319.023049)" id="shape3" d="M.0,27.4C.0,12.3,21.9,.0,49.0,.0C76.1,.0,98.0,12.3,98.0,27.4C98.0,42.5,76.1,54.8,49.0,54.8C21.9,54.8,.0,42.5,.0,27.4z" stroke="#101843" fill="none" stroke-width="1"/><g transform="translate(2217.992531,323.886510)" id="shape4"><path d="M.0,.0C4.5,-6.8,8.9,-13.7,15.6,-19.8C22.3,-26.0,31.1,-31.5,42.0,-32.4C51.5,-33.1,62.5,-30.2,73.7,-26.8" stroke="#191919" fill="none" stroke-width="1"/><path stroke-linecap="round" d="M73.5,-30.0L78.4,-25.4L71.8,-24.2L73.5,-30.0" fill="#191919" stroke="#191919" stroke-width="1"/></g><path transform="translate(2377.667550,295.325249)" id="shape5" d="M.0,12.3C.0,5.5,9.8,.0,22.0,.0C34.1,.0,43.9,5.5,43.9,12.3C43.9,19.0,34.1,24.5,22.0,24.5C9.8,24.5,.0,19.0,.0,12.3z" stroke="#101843" fill="none" stroke-width="1"/><path transform="translate(2423.567550,295.325249)" id="shape6" d="M.0,12.3C.0,5.5,9.8,.0,22.0,.0C34.1,.0,43.9,5.5,43.9,12.3C43.9,19.0,34.1,24.5,22.0,24.5C9.8,24.5,.0,19.0,.0,12.3z" stroke="#101843" fill="none" stroke-width="1"/><g transform="translate(2431.042848,316.816283)" id="shape7"><path d="M.0,.0C-14.0,5.2,-27.9,10.4,-37.3,14.8C-46.7,19.2,-51.5,22.8,-58.6,28.9C-64.7,34.3,-72.6,41.5,-80.7,49.0" stroke="#191919" fill="none" stroke-width="1"/><path stroke-linecap="round" d="M-78.1,50.7L-84.6,52.6L-82.2,46.3L-78.1,50.7" fill="#191919" stroke="#191919" stroke-width="1"/></g><g transform="translate(2399.618550,319.861749)" id="shape8"><path d="M.0,.0C-0.6,18.8,-1.1,37.7,-4.5,49.0C-7.9,60.4,-14.2,64.2,-22.9,70.7C-30.6,76.5,-40.3,84.3,-50.2,92.4" stroke="#191919" fill="none" stroke-width="1"/><path stroke-linecap="round" d="M-47.9,94.4L-54.4,95.9L-51.7,89.8L-47.9,94.4" fill="#191919" stroke="#191919" stroke-width="1"/></g><g transform="translate(2016.727450,368.671849)" id="shape9"><text xml:space="preserve" style="fill:#191919;font-family:Arial,PingFang SC,Mircrosoft YaHei,Arial;font-size:40.00pt"><tspan textLength="18.0" y="31.0" x="0.9" style="font-size:20.00pt">B</tspan></text></g><path transform="translate(2143.227450,359.250049)" id="shape10" d="M.0,27.4C.0,12.3,21.9,.0,49.0,.0C76.1,.0,98.0,12.3,98.0,27.4C98.0,42.5,76.1,54.8,49.0,54.8C21.9,54.8,.0,42.5,.0,27.4z" stroke="#101843" fill="none" stroke-width="1"/><g transform="translate(2235.065942,373.329024)" id="shape11"><path d="M.0,.0C3.7,-7.2,7.5,-14.5,12.2,-21.8C17.0,-29.2,22.7,-36.6,31.1,-42.6C38.1,-47.7,47.0,-51.7,56.1,-55.5" stroke="#191919" fill="none" stroke-width="1"/><path stroke-linecap="round" d="M54.6,-58.2L61.3,-57.7L57.0,-52.7L54.6,-58.2" fill="#191919" stroke="#191919" stroke-width="1"/></g><g transform="translate(2016.727450,447.100763)" id="shape12"><text xml:space="preserve" style="fill:#191919;font-family:Arial,PingFang SC,Mircrosoft YaHei,Arial;font-size:40.00pt"><tspan textLength="15.0" y="31.0" x="2.4" style="font-size:20.00pt">a</tspan></text></g><path transform="translate(2143.227450,440.123363)" id="shape13" d="M.0,27.4C.0,12.3,21.9,.0,49.0,.0C76.1,.0,98.0,12.3,98.0,27.4C98.0,42.5,76.1,54.8,49.0,54.8C21.9,54.8,.0,42.5,.0,27.4z" stroke="#101843" fill="none" stroke-width="1"/><g transform="translate(2220.112531,444.986824)" id="shape14"><path d="M.0,.0C3.8,-7.3,7.7,-14.6,13.6,-21.7C19.5,-28.7,27.4,-35.6,38.2,-40.6C47.6,-45.0,59.1,-47.9,71.0,-50.7" stroke="#191919" fill="none" stroke-width="1"/><path stroke-linecap="round" d="M69.4,-53.5L76.0,-51.9L70.8,-47.6L69.4,-53.5" fill="#191919" stroke="#191919" stroke-width="1"/></g></g></svg>