<svg viewBox="0 0 460 321" xmlns="http://www.w3.org/2000/svg" width="460" height="321" xmlns:xlink="http://www.w3.org/1999/xlink"><defs/><g transform="translate(-239.00,-1378.96)"><g id="table1" transform="translate(264.127000,1379.463000)"><g><path d="M.0,.0L204.0,.0L204.0,40.0L.0,40.0L.0,.0z" stroke-width="1" stroke="#a0a0a4" fill="#ffb713"/><text xml:space="preserve" style="fill:#191919;font-family:BIZ UDゴシック,PingFang SC,Mircrosoft YaHei,Arial;font-size:24.00pt"><tspan textLength="96.0" y="26.0" style="font-size:12.00pt" x="54.0">スタック領域</tspan></text></g><g><path d="M204.0,.0L230.4,.0L230.4,320.0L204.0,320.0L204.0,.0z" stroke-width="1" stroke="#a0a0a4" fill="#ffffff"/><text xml:space="preserve" style="fill:#191919;font-family:BIZ UDゴシック,PingFang SC,Mircrosoft YaHei,Arial;font-size:24.00pt"/></g><g><path d="M230.4,.0L434.4,.0L434.4,40.0L230.4,40.0L230.4,.0z" stroke-width="1" stroke="#a0a0a4" fill="#c351e8"/><text xml:space="preserve" style="fill:#191919;font-family:BIZ UDゴシック,PingFang SC,Mircrosoft YaHei,Arial;font-size:24.00pt"><tspan textLength="80.0" y="26.0" style="font-size:12.00pt" x="292.4">ヒープ領域</tspan></text></g><g><path d="M.0,40.0L102.0,40.0L102.0,80.0L.0,80.0L.0,40.0z" stroke-width="1" stroke="#a0a0a4" fill="#fdff85"/><text xml:space="preserve" style="fill:#191919;font-family:BIZ UDゴシック,PingFang SC,Mircrosoft YaHei,Arial;font-size:24.00pt"><tspan textLength="64.0" y="66.0" style="font-size:12.00pt" x="19.0">アドレス</tspan></text></g><g><path d="M102.0,40.0L204.0,40.0L204.0,80.0L102.0,80.0L102.0,40.0z" stroke-width="1" stroke="#a0a0a4" fill="#fdff85"/><text xml:space="preserve" style="fill:#191919;font-family:BIZ UDゴシック,PingFang SC,Mircrosoft YaHei,Arial;font-size:24.00pt"><tspan textLength="16.0" y="66.0" style="font-size:12.00pt" x="145.0">値</tspan></text></g><g><path d="M230.4,40.0L332.4,40.0L332.4,80.0L230.4,80.0L230.4,40.0z" stroke-width="1" stroke="#a0a0a4" fill="#ab91f8"/><text xml:space="preserve" style="fill:#191919;font-family:BIZ UDゴシック,PingFang SC,Mircrosoft YaHei,Arial;font-size:24.00pt"><tspan textLength="64.0" y="66.0" style="font-size:12.00pt" x="249.4">アドレス</tspan></text></g><g><path d="M332.4,40.0L434.4,40.0L434.4,80.0L332.4,80.0L332.4,40.0z" stroke-width="1" stroke="#a0a0a4" fill="#ab91f8"/><text xml:space="preserve" style="fill:#191919;font-family:BIZ UDゴシック,PingFang SC,Mircrosoft YaHei,Arial;font-size:24.00pt"><tspan textLength="16.0" y="66.0" style="font-size:12.00pt" x="375.4">値</tspan></text></g><g><path d="M.0,80.0L102.0,80.0L102.0,120.0L.0,120.0L.0,80.0z" stroke-width="1" stroke="#a0a0a4" fill="#fdff85"/><text xml:space="preserve" style="fill:#191919;font-family:BIZ UDゴシック,PingFang SC,Mircrosoft YaHei,Arial;font-size:24.00pt"><tspan textLength="16.0" y="106.0" style="font-size:12.00pt" x="43.0">…</tspan></text></g><g><path d="M102.0,80.0L204.0,80.0L204.0,120.0L102.0,120.0L102.0,80.0z" stroke-width="1" stroke="#a0a0a4" fill="#fdff85"/><text xml:space="preserve" style="fill:#191919;font-family:BIZ UDゴシック,PingFang SC,Mircrosoft YaHei,Arial;font-size:24.00pt"><tspan textLength="16.0" y="106.0" style="font-size:12.00pt" x="145.0">…</tspan></text></g><g><path d="M230.4,80.0L332.4,80.0L332.4,120.0L230.4,120.0L230.4,80.0z" stroke-width="1" stroke="#a0a0a4" fill="#ab91f8"/><text xml:space="preserve" style="fill:#191919;font-family:BIZ UDゴシック,PingFang SC,Mircrosoft YaHei,Arial;font-size:24.00pt"><tspan textLength="16.0" y="106.0" style="font-size:12.00pt" x="273.4">…</tspan></text></g><g><path d="M332.4,80.0L434.4,80.0L434.4,120.0L332.4,120.0L332.4,80.0z" stroke-width="1" stroke="#a0a0a4" fill="#ab91f8"/><text xml:space="preserve" style="fill:#191919;font-family:BIZ UDゴシック,PingFang SC,Mircrosoft YaHei,Arial;font-size:24.00pt"><tspan textLength="16.0" y="106.0" style="font-size:12.00pt" x="375.4">…</tspan></text></g><g><path d="M.0,120.0L102.0,120.0L102.0,160.0L.0,160.0L.0,120.0z" stroke-width="1" stroke="#a0a0a4" fill="#fdff85"/><text xml:space="preserve" style="fill:#191919;font-family:BIZ UDゴシック,PingFang SC,Mircrosoft YaHei,Arial;font-size:24.00pt"><tspan textLength="40.0" y="146.0" style="font-size:12.00pt" x="31.0">10238</tspan></text></g><g><path d="M102.0,120.0L204.0,120.0L204.0,160.0L102.0,160.0L102.0,120.0z" stroke-width="1" stroke="#a0a0a4" fill="#fdff85"/><text xml:space="preserve" style="fill:#191919;font-family:BIZ UDゴシック,PingFang SC,Mircrosoft YaHei,Arial;font-size:24.00pt"><tspan textLength="48.0" y="146.0" style="font-size:12.00pt" x="129.0">[2, 3]</tspan></text></g><g><path d="M230.4,120.0L332.4,120.0L332.4,160.0L230.4,160.0L230.4,120.0z" stroke-width="1" stroke="#a0a0a4" fill="#ab91f8"/><text xml:space="preserve" style="fill:#191919;font-family:BIZ UDゴシック,PingFang SC,Mircrosoft YaHei,Arial;font-size:24.00pt"><tspan textLength="16.0" y="146.0" style="font-size:12.00pt" x="273.4">…</tspan></text></g><g><path d="M332.4,120.0L434.4,120.0L434.4,160.0L332.4,160.0L332.4,120.0z" stroke-width="1" stroke="#a0a0a4" fill="#ab91f8"/><text xml:space="preserve" style="fill:#191919;font-family:BIZ UDゴシック,PingFang SC,Mircrosoft YaHei,Arial;font-size:24.00pt"><tspan textLength="16.0" y="146.0" style="font-size:12.00pt" x="375.4">…</tspan></text></g><g><path d="M.0,160.0L102.0,160.0L102.0,200.0L.0,200.0L.0,160.0z" stroke-width="1" stroke="#a0a0a4" fill="#fdff85"/><text xml:space="preserve" style="fill:#191919;font-family:BIZ UDゴシック,PingFang SC,Mircrosoft YaHei,Arial;font-size:24.00pt"><tspan textLength="16.0" y="186.0" style="font-size:12.00pt" x="43.0">…</tspan></text></g><g><path d="M102.0,160.0L204.0,160.0L204.0,200.0L102.0,200.0L102.0,160.0z" stroke-width="1" stroke="#a0a0a4" fill="#fdff85"/><text xml:space="preserve" style="fill:#191919;font-family:BIZ UDゴシック,PingFang SC,Mircrosoft YaHei,Arial;font-size:24.00pt"><tspan textLength="16.0" y="186.0" style="font-size:12.00pt" x="145.0">…</tspan></text></g><g><path d="M230.4,160.0L332.4,160.0L332.4,200.0L230.4,200.0L230.4,160.0z" stroke-width="1" stroke="#a0a0a4" fill="#ab91f8"/><text xml:space="preserve" style="fill:#191919;font-family:BIZ UDゴシック,PingFang SC,Mircrosoft YaHei,Arial;font-size:24.00pt"><tspan textLength="16.0" y="186.0" style="font-size:12.00pt" x="273.4">…</tspan></text></g><g><path d="M332.4,160.0L434.4,160.0L434.4,200.0L332.4,200.0L332.4,160.0z" stroke-width="1" stroke="#a0a0a4" fill="#ab91f8"/><text xml:space="preserve" style="fill:#191919;font-family:BIZ UDゴシック,PingFang SC,Mircrosoft YaHei,Arial;font-size:24.00pt"><tspan textLength="16.0" y="186.0" style="font-size:12.00pt" x="375.4">…</tspan></text></g><g><path d="M.0,200.0L102.0,200.0L102.0,240.0L.0,240.0L.0,200.0z" stroke-width="1" stroke="#a0a0a4" fill="#fdff85"/><text xml:space="preserve" style="fill:#191919;font-family:BIZ UDゴシック,PingFang SC,Mircrosoft YaHei,Arial;font-size:24.00pt"><tspan textLength="16.0" y="226.0" style="font-size:12.00pt" x="43.0">…</tspan></text></g><g><path d="M102.0,200.0L204.0,200.0L204.0,240.0L102.0,240.0L102.0,200.0z" stroke-width="1" stroke="#a0a0a4" fill="#fdff85"/><text xml:space="preserve" style="fill:#191919;font-family:BIZ UDゴシック,PingFang SC,Mircrosoft YaHei,Arial;font-size:24.00pt"><tspan textLength="16.0" y="226.0" style="font-size:12.00pt" x="145.0">…</tspan></text></g><g><path d="M230.4,200.0L332.4,200.0L332.4,240.0L230.4,240.0L230.4,200.0z" stroke-width="1" stroke="#a0a0a4" fill="#ab91f8"/><text xml:space="preserve" style="fill:#191919;font-family:BIZ UDゴシック,PingFang SC,Mircrosoft YaHei,Arial;font-size:24.00pt"><tspan textLength="16.0" y="226.0" style="font-size:12.00pt" x="273.4">…</tspan></text></g><g><path d="M332.4,200.0L434.4,200.0L434.4,240.0L332.4,240.0L332.4,200.0z" stroke-width="1" stroke="#a0a0a4" fill="#ab91f8"/><text xml:space="preserve" style="fill:#191919;font-family:BIZ UDゴシック,PingFang SC,Mircrosoft YaHei,Arial;font-size:24.00pt"><tspan textLength="16.0" y="226.0" style="font-size:12.00pt" x="375.4">…</tspan></text></g><g><path d="M.0,240.0L102.0,240.0L102.0,280.0L.0,280.0L.0,240.0z" stroke-width="1" stroke="#a0a0a4" fill="#fdff85"/><text xml:space="preserve" style="fill:#191919;font-family:BIZ UDゴシック,PingFang SC,Mircrosoft YaHei,Arial;font-size:24.00pt"><tspan textLength="16.0" y="266.0" style="font-size:12.00pt" x="43.0">…</tspan></text></g><g><path d="M102.0,240.0L204.0,240.0L204.0,280.0L102.0,280.0L102.0,240.0z" stroke-width="1" stroke="#a0a0a4" fill="#fdff85"/><text xml:space="preserve" style="fill:#191919;font-family:BIZ UDゴシック,PingFang SC,Mircrosoft YaHei,Arial;font-size:24.00pt"><tspan textLength="16.0" y="266.0" style="font-size:12.00pt" x="145.0">…</tspan></text></g><g><path d="M230.4,240.0L332.4,240.0L332.4,280.0L230.4,280.0L230.4,240.0z" stroke-width="1" stroke="#a0a0a4" fill="#ab91f8"/><text xml:space="preserve" style="fill:#191919;font-family:BIZ UDゴシック,PingFang SC,Mircrosoft YaHei,Arial;font-size:24.00pt"><tspan textLength="16.0" y="266.0" style="font-size:12.00pt" x="273.4">…</tspan></text></g><g><path d="M332.4,240.0L434.4,240.0L434.4,280.0L332.4,280.0L332.4,240.0z" stroke-width="1" stroke="#a0a0a4" fill="#ab91f8"/><text xml:space="preserve" style="fill:#191919;font-family:BIZ UDゴシック,PingFang SC,Mircrosoft YaHei,Arial;font-size:24.00pt"><tspan textLength="16.0" y="266.0" style="font-size:12.00pt" x="375.4">…</tspan></text></g><g><path d="M.0,280.0L102.0,280.0L102.0,320.0L.0,320.0L.0,280.0z" stroke-width="1" stroke="#a0a0a4" fill="#fdff85"/><text xml:space="preserve" style="fill:#191919;font-family:BIZ UDゴシック,PingFang SC,Mircrosoft YaHei,Arial;font-size:24.00pt"><tspan textLength="16.0" y="306.0" style="font-size:12.00pt" x="43.0">…</tspan></text></g><g><path d="M102.0,280.0L204.0,280.0L204.0,320.0L102.0,320.0L102.0,280.0z" stroke-width="1" stroke="#a0a0a4" fill="#fdff85"/><text xml:space="preserve" style="fill:#191919;font-family:BIZ UDゴシック,PingFang SC,Mircrosoft YaHei,Arial;font-size:24.00pt"><tspan textLength="16.0" y="306.0" style="font-size:12.00pt" x="145.0">…</tspan></text></g><g><path d="M230.4,280.0L332.4,280.0L332.4,320.0L230.4,320.0L230.4,280.0z" stroke-width="1" stroke="#a0a0a4" fill="#ab91f8"/><text xml:space="preserve" style="fill:#191919;font-family:BIZ UDゴシック,PingFang SC,Mircrosoft YaHei,Arial;font-size:24.00pt"><tspan textLength="16.0" y="306.0" style="font-size:12.00pt" x="273.4">…</tspan></text></g><g><path d="M332.4,280.0L434.4,280.0L434.4,320.0L332.4,320.0L332.4,280.0z" stroke-width="1" stroke="#a0a0a4" fill="#ab91f8"/><text xml:space="preserve" style="fill:#191919;font-family:BIZ UDゴシック,PingFang SC,Mircrosoft YaHei,Arial;font-size:24.00pt"><tspan textLength="16.0" y="306.0" style="font-size:12.00pt" x="375.4">…</tspan></text></g></g><g id="shape2" transform="translate(241.889900,1496.655400)"><text xml:space="preserve" style="fill:#191919;font-family:Arial,PingFang SC,Mircrosoft YaHei,Arial;font-size:40.00pt"><tspan textLength="18.0" y="31.0" style="font-size:20.00pt" x="0.9">A</tspan></text></g></g></svg>