<svg width="460" viewBox="0 0 460 321" xmlns:xlink="http://www.w3.org/1999/xlink" xmlns="http://www.w3.org/2000/svg" height="321"><defs/><g transform="translate(-821.00,-207.31)"><g transform="translate(846.174738,207.809449)" id="table1"><g><path d="M.0,.0L204.0,.0L204.0,40.0L.0,40.0L.0,.0z" fill="#ffb713" stroke="#a0a0a4" stroke-width="1"/><text xml:space="preserve" style="fill:#191919;font-family:BIZ UDゴシック,PingFang SC,Mircrosoft YaHei,Arial;font-size:24.00pt"><tspan textLength="96.0" y="26.0" x="54.0" style="font-size:12.00pt">スタック領域</tspan></text></g><g><path d="M204.0,.0L230.4,.0L230.4,320.0L204.0,320.0L204.0,.0z" fill="#ffffff" stroke="#a0a0a4" stroke-width="1"/><text xml:space="preserve" style="fill:#191919;font-family:BIZ UDゴシック,PingFang SC,Mircrosoft YaHei,Arial;font-size:24.00pt"/></g><g><path d="M230.4,.0L434.4,.0L434.4,40.0L230.4,40.0L230.4,.0z" fill="#c351e8" stroke="#a0a0a4" stroke-width="1"/><text xml:space="preserve" style="fill:#191919;font-family:BIZ UDゴシック,PingFang SC,Mircrosoft YaHei,Arial;font-size:24.00pt"><tspan textLength="80.0" y="26.0" x="292.4" style="font-size:12.00pt">ヒープ領域</tspan></text></g><g><path d="M.0,40.0L102.0,40.0L102.0,80.0L.0,80.0L.0,40.0z" fill="#fdff85" stroke="#a0a0a4" stroke-width="1"/><text xml:space="preserve" style="fill:#191919;font-family:BIZ UDゴシック,PingFang SC,Mircrosoft YaHei,Arial;font-size:24.00pt"><tspan textLength="64.0" y="66.0" x="19.0" style="font-size:12.00pt">アドレス</tspan></text></g><g><path d="M102.0,40.0L204.0,40.0L204.0,80.0L102.0,80.0L102.0,40.0z" fill="#fdff85" stroke="#a0a0a4" stroke-width="1"/><text xml:space="preserve" style="fill:#191919;font-family:BIZ UDゴシック,PingFang SC,Mircrosoft YaHei,Arial;font-size:24.00pt"><tspan textLength="16.0" y="66.0" x="145.0" style="font-size:12.00pt">値</tspan></text></g><g><path d="M230.4,40.0L332.4,40.0L332.4,80.0L230.4,80.0L230.4,40.0z" fill="#ab91f8" stroke="#a0a0a4" stroke-width="1"/><text xml:space="preserve" style="fill:#191919;font-family:BIZ UDゴシック,PingFang SC,Mircrosoft YaHei,Arial;font-size:24.00pt"><tspan textLength="64.0" y="66.0" x="249.4" style="font-size:12.00pt">アドレス</tspan></text></g><g><path d="M332.4,40.0L434.4,40.0L434.4,80.0L332.4,80.0L332.4,40.0z" fill="#ab91f8" stroke="#a0a0a4" stroke-width="1"/><text xml:space="preserve" style="fill:#191919;font-family:BIZ UDゴシック,PingFang SC,Mircrosoft YaHei,Arial;font-size:24.00pt"><tspan textLength="16.0" y="66.0" x="375.4" style="font-size:12.00pt">値</tspan></text></g><g><path d="M.0,80.0L102.0,80.0L102.0,120.0L.0,120.0L.0,80.0z" fill="#fdff85" stroke="#a0a0a4" stroke-width="1"/><text xml:space="preserve" style="fill:#191919;font-family:BIZ UDゴシック,PingFang SC,Mircrosoft YaHei,Arial;font-size:24.00pt"><tspan textLength="16.0" y="106.0" x="43.0" style="font-size:12.00pt">…</tspan></text></g><g><path d="M102.0,80.0L204.0,80.0L204.0,120.0L102.0,120.0L102.0,80.0z" fill="#fdff85" stroke="#a0a0a4" stroke-width="1"/><text xml:space="preserve" style="fill:#191919;font-family:BIZ UDゴシック,PingFang SC,Mircrosoft YaHei,Arial;font-size:24.00pt"><tspan textLength="16.0" y="106.0" x="145.0" style="font-size:12.00pt">…</tspan></text></g><g><path d="M230.4,80.0L332.4,80.0L332.4,120.0L230.4,120.0L230.4,80.0z" fill="#ab91f8" stroke="#a0a0a4" stroke-width="1"/><text xml:space="preserve" style="fill:#191919;font-family:BIZ UDゴシック,PingFang SC,Mircrosoft YaHei,Arial;font-size:24.00pt"><tspan textLength="40.0" y="106.0" x="261.4" style="font-size:12.00pt">21486</tspan></text></g><g><path d="M332.4,80.0L434.4,80.0L434.4,120.0L332.4,120.0L332.4,80.0z" fill="#ab91f8" stroke="#a0a0a4" stroke-width="1"/><text xml:space="preserve" style="fill:#191919;font-family:BIZ UDゴシック,PingFang SC,Mircrosoft YaHei,Arial;font-size:18.00pt"><tspan textLength="84.0" y="105.0" x="341.4" style="font-size:9.00pt">[22425, 23487]</tspan></text></g><g><path d="M.0,120.0L102.0,120.0L102.0,160.0L.0,160.0L.0,120.0z" fill="#fdff85" stroke="#a0a0a4" stroke-width="1"/><text xml:space="preserve" style="fill:#191919;font-family:BIZ UDゴシック,PingFang SC,Mircrosoft YaHei,Arial;font-size:24.00pt"><tspan textLength="40.0" y="146.0" x="31.0" style="font-size:12.00pt">10238</tspan></text></g><g><path d="M102.0,120.0L204.0,120.0L204.0,160.0L102.0,160.0L102.0,120.0z" fill="#fdff85" stroke="#a0a0a4" stroke-width="1"/><text xml:space="preserve" style="fill:#191919;font-family:BIZ UDゴシック,PingFang SC,Mircrosoft YaHei,Arial;font-size:24.00pt"><tspan textLength="40.0" y="146.0" x="133.0" style="font-size:12.00pt">21486</tspan></text></g><g><path d="M230.4,120.0L332.4,120.0L332.4,160.0L230.4,160.0L230.4,120.0z" fill="#ab91f8" stroke="#a0a0a4" stroke-width="1"/><text xml:space="preserve" style="fill:#191919;font-family:BIZ UDゴシック,PingFang SC,Mircrosoft YaHei,Arial;font-size:24.00pt"><tspan textLength="40.0" y="146.0" x="261.4" style="font-size:12.00pt">22425</tspan></text></g><g><path d="M332.4,120.0L434.4,120.0L434.4,160.0L332.4,160.0L332.4,120.0z" fill="#ab91f8" stroke="#a0a0a4" stroke-width="1"/><text xml:space="preserve" style="fill:#191919;font-family:BIZ UDゴシック,PingFang SC,Mircrosoft YaHei,Arial;font-size:24.00pt"><tspan textLength="8.0" y="146.0" x="379.4" style="font-size:12.00pt">2</tspan></text></g><g><path d="M.0,160.0L102.0,160.0L102.0,200.0L.0,200.0L.0,160.0z" fill="#fdff85" stroke="#a0a0a4" stroke-width="1"/><text xml:space="preserve" style="fill:#191919;font-family:BIZ UDゴシック,PingFang SC,Mircrosoft YaHei,Arial;font-size:24.00pt"><tspan textLength="40.0" y="186.0" x="31.0" style="font-size:12.00pt">11489</tspan></text></g><g><path d="M102.0,160.0L204.0,160.0L204.0,200.0L102.0,200.0L102.0,160.0z" fill="#fdff85" stroke="#a0a0a4" stroke-width="1"/><text xml:space="preserve" style="fill:#191919;font-family:BIZ UDゴシック,PingFang SC,Mircrosoft YaHei,Arial;font-size:24.00pt"><tspan textLength="40.0" y="186.0" x="133.0" style="font-size:12.00pt">21486</tspan></text></g><g><path d="M230.4,160.0L332.4,160.0L332.4,200.0L230.4,200.0L230.4,160.0z" fill="#ab91f8" stroke="#a0a0a4" stroke-width="1"/><text xml:space="preserve" style="fill:#191919;font-family:BIZ UDゴシック,PingFang SC,Mircrosoft YaHei,Arial;font-size:24.00pt"><tspan textLength="40.0" y="186.0" x="261.4" style="font-size:12.00pt">23487</tspan></text></g><g><path d="M332.4,160.0L434.4,160.0L434.4,200.0L332.4,200.0L332.4,160.0z" fill="#ab91f8" stroke="#a0a0a4" stroke-width="1"/><text xml:space="preserve" style="fill:#191919;font-family:BIZ UDゴシック,PingFang SC,Mircrosoft YaHei,Arial;font-size:24.00pt"><tspan textLength="8.0" y="186.0" x="379.4" style="font-size:12.00pt">3</tspan></text></g><g><path d="M.0,200.0L102.0,200.0L102.0,240.0L.0,240.0L.0,200.0z" fill="#fdff85" stroke="#a0a0a4" stroke-width="1"/><text xml:space="preserve" style="fill:#191919;font-family:BIZ UDゴシック,PingFang SC,Mircrosoft YaHei,Arial;font-size:24.00pt"><tspan textLength="16.0" y="226.0" x="43.0" style="font-size:12.00pt">…</tspan></text></g><g><path d="M102.0,200.0L204.0,200.0L204.0,240.0L102.0,240.0L102.0,200.0z" fill="#fdff85" stroke="#a0a0a4" stroke-width="1"/><text xml:space="preserve" style="fill:#191919;font-family:BIZ UDゴシック,PingFang SC,Mircrosoft YaHei,Arial;font-size:24.00pt"><tspan textLength="16.0" y="226.0" x="145.0" style="font-size:12.00pt">…</tspan></text></g><g><path d="M230.4,200.0L332.4,200.0L332.4,240.0L230.4,240.0L230.4,200.0z" fill="#ab91f8" stroke="#a0a0a4" stroke-width="1"/><text xml:space="preserve" style="fill:#191919;font-family:BIZ UDゴシック,PingFang SC,Mircrosoft YaHei,Arial;font-size:24.00pt"><tspan textLength="16.0" y="226.0" x="273.4" style="font-size:12.00pt">…</tspan></text></g><g><path d="M332.4,200.0L434.4,200.0L434.4,240.0L332.4,240.0L332.4,200.0z" fill="#ab91f8" stroke="#a0a0a4" stroke-width="1"/><text xml:space="preserve" style="fill:#191919;font-family:BIZ UDゴシック,PingFang SC,Mircrosoft YaHei,Arial;font-size:24.00pt"><tspan textLength="16.0" y="226.0" x="375.4" style="font-size:12.00pt">…</tspan></text></g><g><path d="M.0,240.0L102.0,240.0L102.0,280.0L.0,280.0L.0,240.0z" fill="#fdff85" stroke="#a0a0a4" stroke-width="1"/><text xml:space="preserve" style="fill:#191919;font-family:BIZ UDゴシック,PingFang SC,Mircrosoft YaHei,Arial;font-size:24.00pt"><tspan textLength="16.0" y="266.0" x="43.0" style="font-size:12.00pt">…</tspan></text></g><g><path d="M102.0,240.0L204.0,240.0L204.0,280.0L102.0,280.0L102.0,240.0z" fill="#fdff85" stroke="#a0a0a4" stroke-width="1"/><text xml:space="preserve" style="fill:#191919;font-family:BIZ UDゴシック,PingFang SC,Mircrosoft YaHei,Arial;font-size:24.00pt"><tspan textLength="16.0" y="266.0" x="145.0" style="font-size:12.00pt">…</tspan></text></g><g><path d="M230.4,240.0L332.4,240.0L332.4,280.0L230.4,280.0L230.4,240.0z" fill="#ab91f8" stroke="#a0a0a4" stroke-width="1"/><text xml:space="preserve" style="fill:#191919;font-family:BIZ UDゴシック,PingFang SC,Mircrosoft YaHei,Arial;font-size:24.00pt"><tspan textLength="16.0" y="266.0" x="273.4" style="font-size:12.00pt">…</tspan></text></g><g><path d="M332.4,240.0L434.4,240.0L434.4,280.0L332.4,280.0L332.4,240.0z" fill="#ab91f8" stroke="#a0a0a4" stroke-width="1"/><text xml:space="preserve" style="fill:#191919;font-family:BIZ UDゴシック,PingFang SC,Mircrosoft YaHei,Arial;font-size:24.00pt"><tspan textLength="16.0" y="266.0" x="375.4" style="font-size:12.00pt">…</tspan></text></g><g><path d="M.0,280.0L102.0,280.0L102.0,320.0L.0,320.0L.0,280.0z" fill="#fdff85" stroke="#a0a0a4" stroke-width="1"/><text xml:space="preserve" style="fill:#191919;font-family:BIZ UDゴシック,PingFang SC,Mircrosoft YaHei,Arial;font-size:24.00pt"><tspan textLength="16.0" y="306.0" x="43.0" style="font-size:12.00pt">…</tspan></text></g><g><path d="M102.0,280.0L204.0,280.0L204.0,320.0L102.0,320.0L102.0,280.0z" fill="#fdff85" stroke="#a0a0a4" stroke-width="1"/><text xml:space="preserve" style="fill:#191919;font-family:BIZ UDゴシック,PingFang SC,Mircrosoft YaHei,Arial;font-size:24.00pt"><tspan textLength="16.0" y="306.0" x="145.0" style="font-size:12.00pt">…</tspan></text></g><g><path d="M230.4,280.0L332.4,280.0L332.4,320.0L230.4,320.0L230.4,280.0z" fill="#ab91f8" stroke="#a0a0a4" stroke-width="1"/><text xml:space="preserve" style="fill:#191919;font-family:BIZ UDゴシック,PingFang SC,Mircrosoft YaHei,Arial;font-size:24.00pt"><tspan textLength="16.0" y="306.0" x="273.4" style="font-size:12.00pt">…</tspan></text></g><g><path d="M332.4,280.0L434.4,280.0L434.4,320.0L332.4,320.0L332.4,280.0z" fill="#ab91f8" stroke="#a0a0a4" stroke-width="1"/><text xml:space="preserve" style="fill:#191919;font-family:BIZ UDゴシック,PingFang SC,Mircrosoft YaHei,Arial;font-size:24.00pt"><tspan textLength="16.0" y="306.0" x="375.4" style="font-size:12.00pt">…</tspan></text></g></g><g transform="translate(823.937638,325.001849)" id="shape2"><text xml:space="preserve" style="fill:#191919;font-family:Arial,PingFang SC,Mircrosoft YaHei,Arial;font-size:40.00pt"><tspan textLength="18.0" y="31.0" x="0.9" style="font-size:20.00pt">A</tspan></text></g><path transform="translate(948.317638,319.023049)" id="shape3" d="M.0,27.4C.0,12.3,21.9,.0,49.0,.0C76.1,.0,98.0,12.3,98.0,27.4C98.0,42.5,76.1,54.8,49.0,54.8C21.9,54.8,.0,42.5,.0,27.4z" stroke="#101843" fill="none" stroke-width="1"/><g transform="translate(1025.202719,323.886510)" id="shape4"><path d="M.0,.0C4.5,-6.8,8.9,-13.7,15.6,-19.8C22.3,-26.0,31.1,-31.5,42.0,-32.4C51.5,-33.1,62.5,-30.2,73.7,-26.8" stroke="#191919" fill="none" stroke-width="1"/><path stroke-linecap="round" d="M73.5,-30.0L78.4,-25.4L71.8,-24.2L73.5,-30.0" fill="#191919" stroke="#191919" stroke-width="1"/></g><path transform="translate(1184.881738,295.325249)" id="shape5" d="M.0,12.3C.0,5.5,9.8,.0,22.0,.0C34.1,.0,43.9,5.5,43.9,12.3C43.9,19.0,34.1,24.5,22.0,24.5C9.8,24.5,.0,19.0,.0,12.3z" stroke="#101843" fill="none" stroke-width="1"/><path transform="translate(1230.783738,295.325249)" id="shape6" d="M.0,12.3C.0,5.5,9.8,.0,22.0,.0C34.1,.0,43.9,5.5,43.9,12.3C43.9,19.0,34.1,24.5,22.0,24.5C9.8,24.5,.0,19.0,.0,12.3z" stroke="#101843" fill="none" stroke-width="1"/><g transform="translate(1238.259036,316.816283)" id="shape7"><path d="M.0,.0C-14.0,5.2,-27.9,10.4,-37.3,14.8C-46.7,19.2,-51.5,22.8,-58.6,28.9C-64.7,34.3,-72.6,41.5,-80.7,49.0" stroke="#191919" fill="none" stroke-width="1"/><path stroke-linecap="round" d="M-78.1,50.7L-84.6,52.6L-82.2,46.3L-78.1,50.7" fill="#191919" stroke="#191919" stroke-width="1"/></g><g transform="translate(1184.881738,307.593449)" id="shape8"><path d="M.0,.0C-6.3,1.6,-12.7,3.3,-17.0,5.1C-21.3,6.9,-23.6,9.0,-26.5,12.2C-28.5,14.5,-30.9,17.5,-33.3,20.6" stroke="#191919" fill="none" stroke-width="1"/><path stroke-linecap="round" d="M-29.9,21.1L-35.9,24.0L-34.6,17.4L-29.9,21.1" fill="#191919" stroke="#191919" stroke-width="1"/></g><g transform="translate(823.937638,368.671641)" id="shape9"><text xml:space="preserve" style="fill:#191919;font-family:Arial,PingFang SC,Mircrosoft YaHei,Arial;font-size:40.00pt"><tspan textLength="18.0" y="31.0" x="0.9" style="font-size:20.00pt">B</tspan></text></g><path transform="translate(950.441575,359.249900)" id="shape10" d="M.0,27.4C.0,12.3,21.9,.0,49.0,.0C76.1,.0,98.0,12.3,98.0,27.4C98.0,42.5,76.1,54.8,49.0,54.8C21.9,54.8,.0,42.5,.0,27.4z" stroke="#101843" fill="none" stroke-width="1"/><g transform="translate(1042.280067,373.328876)" id="shape11"><path d="M.0,.0C3.7,-7.2,7.5,-14.5,12.2,-21.8C17.0,-29.2,22.7,-36.6,31.1,-42.6C38.1,-47.7,47.0,-51.7,56.1,-55.5" stroke="#191919" fill="none" stroke-width="1"/><path stroke-linecap="round" d="M54.6,-58.2L61.3,-57.7L57.0,-52.7L54.6,-58.2" fill="#191919" stroke="#191919" stroke-width="1"/></g></g></svg>