<svg width="460" viewBox="0 0 460 322" xmlns:xlink="http://www.w3.org/1999/xlink" xmlns="http://www.w3.org/2000/svg" height="322"><defs/><g transform="translate(-3239.73,-623.12)"><g transform="translate(3265.076000,623.622000)" id="table1"><g><path d="M.0,.0L204.0,.0L204.0,40.0L.0,40.0L.0,.0z" fill="#ffb713" stroke="#a0a0a4" stroke-width="1"/><text xml:space="preserve" style="fill:#191919;font-family:BIZ UDゴシック,PingFang SC,Mircrosoft YaHei,Arial;font-size:24.00pt"><tspan textLength="96.0" y="26.0" x="54.0" style="font-size:12.00pt">スタック領域</tspan></text></g><g><path d="M204.0,.0L230.4,.0L230.4,320.0L204.0,320.0L204.0,.0z" fill="#ffffff" stroke="#a0a0a4" stroke-width="1"/><text xml:space="preserve" style="fill:#191919;font-family:BIZ UDゴシック,PingFang SC,Mircrosoft YaHei,Arial;font-size:24.00pt"/></g><g><path d="M230.4,.0L434.4,.0L434.4,40.0L230.4,40.0L230.4,.0z" fill="#c351e8" stroke="#a0a0a4" stroke-width="1"/><text xml:space="preserve" style="fill:#191919;font-family:BIZ UDゴシック,PingFang SC,Mircrosoft YaHei,Arial;font-size:24.00pt"><tspan textLength="80.0" y="26.0" x="292.4" style="font-size:12.00pt">ヒープ領域</tspan></text></g><g><path d="M.0,40.0L102.0,40.0L102.0,80.0L.0,80.0L.0,40.0z" fill="#fdff85" stroke="#a0a0a4" stroke-width="1"/><text xml:space="preserve" style="fill:#191919;font-family:BIZ UDゴシック,PingFang SC,Mircrosoft YaHei,Arial;font-size:24.00pt"><tspan textLength="64.0" y="66.0" x="19.0" style="font-size:12.00pt">アドレス</tspan></text></g><g><path d="M102.0,40.0L204.0,40.0L204.0,80.0L102.0,80.0L102.0,40.0z" fill="#fdff85" stroke="#a0a0a4" stroke-width="1"/><text xml:space="preserve" style="fill:#191919;font-family:BIZ UDゴシック,PingFang SC,Mircrosoft YaHei,Arial;font-size:24.00pt"><tspan textLength="16.0" y="66.0" x="145.0" style="font-size:12.00pt">値</tspan></text></g><g><path d="M230.4,40.0L332.4,40.0L332.4,80.0L230.4,80.0L230.4,40.0z" fill="#ab91f8" stroke="#a0a0a4" stroke-width="1"/><text xml:space="preserve" style="fill:#191919;font-family:BIZ UDゴシック,PingFang SC,Mircrosoft YaHei,Arial;font-size:24.00pt"><tspan textLength="64.0" y="66.0" x="249.4" style="font-size:12.00pt">アドレス</tspan></text></g><g><path d="M332.4,40.0L434.4,40.0L434.4,80.0L332.4,80.0L332.4,40.0z" fill="#ab91f8" stroke="#a0a0a4" stroke-width="1"/><text xml:space="preserve" style="fill:#191919;font-family:BIZ UDゴシック,PingFang SC,Mircrosoft YaHei,Arial;font-size:24.00pt"><tspan textLength="16.0" y="66.0" x="375.4" style="font-size:12.00pt">値</tspan></text></g><g><path d="M.0,80.0L102.0,80.0L102.0,120.0L.0,120.0L.0,80.0z" fill="#fdff85" stroke="#a0a0a4" stroke-width="1"/><text xml:space="preserve" style="fill:#191919;font-family:BIZ UDゴシック,PingFang SC,Mircrosoft YaHei,Arial;font-size:24.00pt"><tspan textLength="16.0" y="106.0" x="43.0" style="font-size:12.00pt">…</tspan></text></g><g><path d="M102.0,80.0L204.0,80.0L204.0,120.0L102.0,120.0L102.0,80.0z" fill="#fdff85" stroke="#a0a0a4" stroke-width="1"/><text xml:space="preserve" style="fill:#191919;font-family:BIZ UDゴシック,PingFang SC,Mircrosoft YaHei,Arial;font-size:24.00pt"><tspan textLength="16.0" y="106.0" x="145.0" style="font-size:12.00pt">…</tspan></text></g><g><path d="M230.4,80.0L332.4,80.0L332.4,120.0L230.4,120.0L230.4,80.0z" fill="#ab91f8" stroke="#a0a0a4" stroke-width="1"/><text xml:space="preserve" style="fill:#191919;font-family:BIZ UDゴシック,PingFang SC,Mircrosoft YaHei,Arial;font-size:24.00pt"><tspan textLength="16.0" y="106.0" x="273.4" style="font-size:12.00pt">…</tspan></text></g><g><path d="M332.4,80.0L434.4,80.0L434.4,120.0L332.4,120.0L332.4,80.0z" fill="#ab91f8" stroke="#a0a0a4" stroke-width="1"/><text xml:space="preserve" style="fill:#191919;font-family:BIZ UDゴシック,PingFang SC,Mircrosoft YaHei,Arial;font-size:24.00pt"><tspan textLength="16.0" y="106.0" x="375.4" style="font-size:12.00pt">…</tspan></text></g><g><path d="M.0,120.0L102.0,120.0L102.0,160.0L.0,160.0L.0,120.0z" fill="#fdff85" stroke="#a0a0a4" stroke-width="1"/><text xml:space="preserve" style="fill:#191919;font-family:BIZ UDゴシック,PingFang SC,Mircrosoft YaHei,Arial;font-size:24.00pt"><tspan textLength="40.0" y="146.0" x="31.0" style="font-size:12.00pt">10238</tspan></text></g><g><path d="M102.0,120.0L204.0,120.0L204.0,160.0L102.0,160.0L102.0,120.0z" fill="#fdff85" stroke="#a0a0a4" stroke-width="1"/><text xml:space="preserve" style="fill:#191919;font-family:BIZ UDゴシック,PingFang SC,Mircrosoft YaHei,Arial;font-size:18.00pt"><tspan textLength="84.0" y="145.0" x="111.0" style="font-size:9.00pt">[22425, 23487]</tspan></text></g><g><path d="M230.4,120.0L332.4,120.0L332.4,160.0L230.4,160.0L230.4,120.0z" fill="#ab91f8" stroke="#a0a0a4" stroke-width="1"/><text xml:space="preserve" style="fill:#191919;font-family:BIZ UDゴシック,PingFang SC,Mircrosoft YaHei,Arial;font-size:24.00pt"><tspan textLength="40.0" y="146.0" x="261.4" style="font-size:12.00pt">22425</tspan></text></g><g><path d="M332.4,120.0L434.4,120.0L434.4,160.0L332.4,160.0L332.4,120.0z" fill="#ab91f8" stroke="#a0a0a4" stroke-width="1"/><text xml:space="preserve" style="fill:#191919;font-family:BIZ UDゴシック,PingFang SC,Mircrosoft YaHei,Arial;font-size:24.00pt"><tspan textLength="8.0" y="146.0" x="379.4" style="font-size:12.00pt">2</tspan></text></g><g><path d="M.0,160.0L102.0,160.0L102.0,200.0L.0,200.0L.0,160.0z" fill="#fdff85" stroke="#a0a0a4" stroke-width="1"/><text xml:space="preserve" style="fill:#191919;font-family:BIZ UDゴシック,PingFang SC,Mircrosoft YaHei,Arial;font-size:24.00pt"><tspan textLength="16.0" y="186.0" x="43.0" style="font-size:12.00pt">…</tspan></text></g><g><path d="M102.0,160.0L204.0,160.0L204.0,200.0L102.0,200.0L102.0,160.0z" fill="#fdff85" stroke="#a0a0a4" stroke-width="1"/><text xml:space="preserve" style="fill:#191919;font-family:BIZ UDゴシック,PingFang SC,Mircrosoft YaHei,Arial;font-size:24.00pt"><tspan textLength="16.0" y="186.0" x="145.0" style="font-size:12.00pt">…</tspan></text></g><g><path d="M230.4,160.0L332.4,160.0L332.4,200.0L230.4,200.0L230.4,160.0z" fill="#ab91f8" stroke="#a0a0a4" stroke-width="1"/><text xml:space="preserve" style="fill:#191919;font-family:BIZ UDゴシック,PingFang SC,Mircrosoft YaHei,Arial;font-size:24.00pt"><tspan textLength="40.0" y="186.0" x="261.4" style="font-size:12.00pt">23487</tspan></text></g><g><path d="M332.4,160.0L434.4,160.0L434.4,200.0L332.4,200.0L332.4,160.0z" fill="#ab91f8" stroke="#a0a0a4" stroke-width="1"/><text xml:space="preserve" style="fill:#191919;font-family:BIZ UDゴシック,PingFang SC,Mircrosoft YaHei,Arial;font-size:24.00pt"><tspan textLength="8.0" y="186.0" x="379.4" style="font-size:12.00pt">3</tspan></text></g><g><path d="M.0,200.0L102.0,200.0L102.0,240.0L.0,240.0L.0,200.0z" fill="#fdff85" stroke="#a0a0a4" stroke-width="1"/><text xml:space="preserve" style="fill:#191919;font-family:BIZ UDゴシック,PingFang SC,Mircrosoft YaHei,Arial;font-size:24.00pt"><tspan textLength="40.0" y="226.0" x="31.0" style="font-size:12.00pt">11489</tspan></text></g><g><path d="M102.0,200.0L204.0,200.0L204.0,240.0L102.0,240.0L102.0,200.0z" fill="#fdff85" stroke="#a0a0a4" stroke-width="1"/><text xml:space="preserve" style="fill:#191919;font-family:BIZ UDゴシック,PingFang SC,Mircrosoft YaHei,Arial;font-size:18.00pt"><tspan textLength="84.0" y="225.0" x="111.0" style="font-size:9.00pt">[24305, 23487]</tspan></text></g><g><path d="M230.4,200.0L332.4,200.0L332.4,240.0L230.4,240.0L230.4,200.0z" fill="#ab91f8" stroke="#a0a0a4" stroke-width="1"/><text xml:space="preserve" style="fill:#191919;font-family:BIZ UDゴシック,PingFang SC,Mircrosoft YaHei,Arial;font-size:24.00pt"><tspan textLength="16.0" y="226.0" x="273.4" style="font-size:12.00pt">…</tspan></text></g><g><path d="M332.4,200.0L434.4,200.0L434.4,240.0L332.4,240.0L332.4,200.0z" fill="#ab91f8" stroke="#a0a0a4" stroke-width="1"/><text xml:space="preserve" style="fill:#191919;font-family:BIZ UDゴシック,PingFang SC,Mircrosoft YaHei,Arial;font-size:24.00pt"><tspan textLength="16.0" y="226.0" x="375.4" style="font-size:12.00pt">…</tspan></text></g><g><path d="M.0,240.0L102.0,240.0L102.0,280.0L.0,280.0L.0,240.0z" fill="#fdff85" stroke="#a0a0a4" stroke-width="1"/><text xml:space="preserve" style="fill:#191919;font-family:BIZ UDゴシック,PingFang SC,Mircrosoft YaHei,Arial;font-size:24.00pt"><tspan textLength="40.0" y="266.0" x="31.0" style="font-size:12.00pt">12964</tspan></text></g><g><path d="M102.0,240.0L204.0,240.0L204.0,280.0L102.0,280.0L102.0,240.0z" fill="#fdff85" stroke="#a0a0a4" stroke-width="1"/><text xml:space="preserve" style="fill:#191919;font-family:BIZ UDゴシック,PingFang SC,Mircrosoft YaHei,Arial;font-size:24.00pt"><tspan textLength="40.0" y="266.0" x="133.0" style="font-size:12.00pt">23487</tspan></text></g><g><path d="M230.4,240.0L332.4,240.0L332.4,280.0L230.4,280.0L230.4,240.0z" fill="#ab91f8" stroke="#a0a0a4" stroke-width="1"/><text xml:space="preserve" style="fill:#191919;font-family:BIZ UDゴシック,PingFang SC,Mircrosoft YaHei,Arial;font-size:24.00pt"><tspan textLength="40.0" y="266.0" x="261.4" style="font-size:12.00pt">24305</tspan></text></g><g><path d="M332.4,240.0L434.4,240.0L434.4,280.0L332.4,280.0L332.4,240.0z" fill="#ab91f8" stroke="#a0a0a4" stroke-width="1"/><text xml:space="preserve" style="fill:#191919;font-family:BIZ UDゴシック,PingFang SC,Mircrosoft YaHei,Arial;font-size:24.00pt"><tspan textLength="8.0" y="266.0" x="379.4" style="font-size:12.00pt">1</tspan></text></g><g><path d="M.0,280.0L102.0,280.0L102.0,320.0L.0,320.0L.0,280.0z" fill="#fdff85" stroke="#a0a0a4" stroke-width="1"/><text xml:space="preserve" style="fill:#191919;font-family:BIZ UDゴシック,PingFang SC,Mircrosoft YaHei,Arial;font-size:24.00pt"><tspan textLength="40.0" y="306.0" x="31.0" style="font-size:12.00pt">13385</tspan></text></g><g><path d="M102.0,280.0L204.0,280.0L204.0,320.0L102.0,320.0L102.0,280.0z" fill="#fdff85" stroke="#a0a0a4" stroke-width="1"/><text xml:space="preserve" style="fill:#191919;font-family:BIZ UDゴシック,PingFang SC,Mircrosoft YaHei,Arial;font-size:24.00pt"><tspan textLength="40.0" y="306.0" x="133.0" style="font-size:12.00pt">25681</tspan></text></g><g><path d="M230.4,280.0L332.4,280.0L332.4,320.0L230.4,320.0L230.4,280.0z" fill="#ab91f8" stroke="#a0a0a4" stroke-width="1"/><text xml:space="preserve" style="fill:#191919;font-family:BIZ UDゴシック,PingFang SC,Mircrosoft YaHei,Arial;font-size:24.00pt"><tspan textLength="40.0" y="306.0" x="261.4" style="font-size:12.00pt">25681</tspan></text></g><g><path d="M332.4,280.0L434.4,280.0L434.4,320.0L332.4,320.0L332.4,280.0z" fill="#ab91f8" stroke="#a0a0a4" stroke-width="1"/><text xml:space="preserve" style="fill:#191919;font-family:BIZ UDゴシック,PingFang SC,Mircrosoft YaHei,Arial;font-size:24.00pt"><tspan textLength="8.0" y="306.0" x="379.4" style="font-size:12.00pt">4</tspan></text></g></g><g transform="translate(3242.838900,740.810400)" id="shape2"><text xml:space="preserve" style="fill:#191919;font-family:Arial,PingFang SC,Mircrosoft YaHei,Arial;font-size:40.00pt"><tspan textLength="18.0" y="31.0" x="0.9" style="font-size:20.00pt">A</tspan></text></g><path transform="translate(3372.879000,752.940800)" id="shape3" d="M.0,12.3C.0,5.5,9.8,.0,22.0,.0C34.1,.0,43.9,5.5,43.9,12.3C43.9,19.0,34.1,24.5,22.0,24.5C9.8,24.5,.0,19.0,.0,12.3z" stroke="#101843" fill="none" stroke-width="1"/><g transform="translate(3394.830000,752.940800)" id="shape4"><path d="M.0,.0C10.6,-10.0,21.3,-19.9,34.7,-27.3C48.2,-34.6,64.5,-39.4,83.9,-34.8C102.1,-30.6,123.0,-18.1,144.0,-5.2" stroke="#191919" fill="none" stroke-width="1"/><path stroke-linecap="round" d="M144.6,-8.4L148.1,-2.7L141.4,-3.3L144.6,-8.4" fill="#191919" stroke="#191919" stroke-width="1"/></g><path transform="translate(3416.779000,752.939800)" id="shape5" d="M.0,12.3C.0,5.5,9.8,.0,22.0,.0C34.1,.0,43.9,5.5,43.9,12.3C43.9,19.0,34.1,24.5,22.0,24.5C9.8,24.5,.0,19.0,.0,12.3z" stroke="#101843" fill="none" stroke-width="1"/><g transform="translate(3438.730000,777.476300)" id="shape6"><path d="M.0,.0C-0.1,5.5,-0.1,11.1,5.4,15.7C10.9,20.3,22.0,24.0,36.0,25.8C48.5,27.4,63.3,27.6,78.3,27.6" stroke="#191919" fill="none" stroke-width="1"/><path stroke-linecap="round" d="M77.4,24.6L83.4,27.6L77.4,30.6L77.4,24.6" fill="#191919" stroke="#191919" stroke-width="1"/></g><g transform="translate(3242.838900,823.937400)" id="shape7"><text xml:space="preserve" style="fill:#191919;font-family:Arial,PingFang SC,Mircrosoft YaHei,Arial;font-size:40.00pt"><tspan textLength="18.0" y="31.0" x="0.9" style="font-size:20.00pt">B</tspan></text></g><path transform="translate(3372.879000,831.496800)" id="shape8" d="M.0,12.3C.0,5.5,9.8,.0,22.0,.0C34.1,.0,43.9,5.5,43.9,12.3C43.9,19.0,34.1,24.5,22.0,24.5C9.8,24.5,.0,19.0,.0,12.3z" stroke="#101843" fill="none" stroke-width="1"/><g transform="translate(3403.286712,855.089768)" id="shape9"><path d="M.0,.0C11.0,5.8,21.9,11.6,32.4,15.9C42.8,20.2,52.7,23.0,66.4,25.0C78.7,26.7,93.9,27.9,109.5,28.9" stroke="#191919" fill="none" stroke-width="1"/><path stroke-linecap="round" d="M109.3,25.9L115.1,29.3L108.9,31.9L109.3,25.9" fill="#191919" stroke="#191919" stroke-width="1"/></g><path transform="translate(3416.779000,831.496800)" id="shape10" d="M.0,12.3C.0,5.5,9.8,.0,22.0,.0C34.1,.0,43.9,5.5,43.9,12.3C43.9,19.0,34.1,24.5,22.0,24.5C9.8,24.5,.0,19.0,.0,12.3z" stroke="#101843" fill="none" stroke-width="1"/><g transform="translate(3460.680900,843.765000)" id="shape11"><path d="M.0,.0C17.4,.0,34.7,.0,49.1,-1.8C63.6,-3.6,75.1,-7.2,80.8,-11.8C84.7,-14.9,85.9,-18.5,86.3,-22.2" stroke="#191919" fill="none" stroke-width="1"/><path stroke-linecap="round" d="M83.3,-21.5L86.4,-27.4L89.3,-21.3L83.3,-21.5" fill="#191919" stroke="#191919" stroke-width="1"/></g><g transform="translate(3242.838900,865.848400)" id="shape12"><text xml:space="preserve" style="fill:#191919;font-family:Arial,PingFang SC,Mircrosoft YaHei,Arial;font-size:40.00pt"><tspan textLength="15.0" y="31.0" x="2.4" style="font-size:20.00pt">a</tspan></text></g><path transform="translate(3372.873000,861.730200)" id="shape13" d="M.0,23.7C.0,10.6,19.0,.0,42.4,.0C65.9,.0,84.9,10.6,84.9,23.7C84.9,36.8,65.9,47.4,42.4,47.4C19.0,47.4,.0,36.8,.0,23.7z" stroke="#101843" fill="none" stroke-width="1"/><g transform="translate(3457.747000,885.448000)" id="shape14"><path d="M.0,.0C10.0,-4.8,20.0,-9.6,27.8,-15.8C35.6,-22.0,41.4,-29.7,47.4,-38.8C52.6,-46.6,58.0,-55.4,63.4,-64.3" stroke="#191919" fill="none" stroke-width="1"/><path stroke-linecap="round" d="M60.6,-65.5L66.3,-69.1L65.8,-62.4L60.6,-65.5" fill="#191919" stroke="#191919" stroke-width="1"/></g><g transform="translate(3242.838900,903.644400)" id="shape15"><text xml:space="preserve" style="fill:#191919;font-family:Arial,PingFang SC,Mircrosoft YaHei,Arial;font-size:40.00pt"><tspan textLength="15.0" y="31.0" x="2.4" style="font-size:20.00pt">b</tspan></text></g><g transform="translate(3454.932661,911.310984)" id="shape16"><path d="M.0,.0C6.5,-6.2,13.1,-12.5,22.2,-15.6C31.4,-18.7,43.2,-18.6,52.5,-15.6C60.1,-13.1,65.9,-8.6,71.5,-3.7" stroke="#191919" fill="none" stroke-width="1"/><path stroke-linecap="round" d="M72.7,-6.7L75.1,-0.4L68.7,-2.2L72.7,-6.7" fill="#191919" stroke="#191919" stroke-width="1"/></g></g></svg>