<svg xmlns:xlink="http://www.w3.org/1999/xlink" height="321" viewBox="0 0 457 321" xmlns="http://www.w3.org/2000/svg" width="457"><defs/><g transform="translate(-390.96,-241.70)"><g transform="translate(412.933071,242.204724)" id="table1"><g><path fill="#ffb713" stroke="#a0a0a4" d="M.0,.0L204.0,.0L204.0,40.0L.0,40.0L.0,.0z" stroke-width="1"/><text style="fill:#191919;font-family:BIZ UDゴシック,PingFang SC,Mircrosoft YaHei,Arial;font-size:24.00pt" xml:space="preserve"><tspan style="font-size:12.00pt" textLength="96.0" x="54.0" y="26.0">スタック領域</tspan></text></g><g><path fill="#ffffff" stroke="#a0a0a4" d="M204.0,.0L230.4,.0L230.4,320.0L204.0,320.0L204.0,.0z" stroke-width="1"/><text style="fill:#191919;font-family:BIZ UDゴシック,PingFang SC,Mircrosoft YaHei,Arial;font-size:24.00pt" xml:space="preserve"/></g><g><path fill="#c351e8" stroke="#a0a0a4" d="M230.4,.0L434.4,.0L434.4,40.0L230.4,40.0L230.4,.0z" stroke-width="1"/><text style="fill:#191919;font-family:BIZ UDゴシック,PingFang SC,Mircrosoft YaHei,Arial;font-size:24.00pt" xml:space="preserve"><tspan style="font-size:12.00pt" textLength="80.0" x="292.4" y="26.0">ヒープ領域</tspan></text></g><g><path fill="#fdff85" stroke="#a0a0a4" d="M.0,40.0L102.0,40.0L102.0,80.0L.0,80.0L.0,40.0z" stroke-width="1"/><text style="fill:#191919;font-family:BIZ UDゴシック,PingFang SC,Mircrosoft YaHei,Arial;font-size:24.00pt" xml:space="preserve"><tspan style="font-size:12.00pt" textLength="64.0" x="19.0" y="66.0">アドレス</tspan></text></g><g><path fill="#fdff85" stroke="#a0a0a4" d="M102.0,40.0L204.0,40.0L204.0,80.0L102.0,80.0L102.0,40.0z" stroke-width="1"/><text style="fill:#191919;font-family:BIZ UDゴシック,PingFang SC,Mircrosoft YaHei,Arial;font-size:24.00pt" xml:space="preserve"><tspan style="font-size:12.00pt" textLength="16.0" x="145.0" y="66.0">値</tspan></text></g><g><path fill="#ab91f8" stroke="#a0a0a4" d="M230.4,40.0L332.4,40.0L332.4,80.0L230.4,80.0L230.4,40.0z" stroke-width="1"/><text style="fill:#191919;font-family:BIZ UDゴシック,PingFang SC,Mircrosoft YaHei,Arial;font-size:24.00pt" xml:space="preserve"><tspan style="font-size:12.00pt" textLength="64.0" x="249.4" y="66.0">アドレス</tspan></text></g><g><path fill="#ab91f8" stroke="#a0a0a4" d="M332.4,40.0L434.4,40.0L434.4,80.0L332.4,80.0L332.4,40.0z" stroke-width="1"/><text style="fill:#191919;font-family:BIZ UDゴシック,PingFang SC,Mircrosoft YaHei,Arial;font-size:24.00pt" xml:space="preserve"><tspan style="font-size:12.00pt" textLength="16.0" x="375.4" y="66.0">値</tspan></text></g><g><path fill="#fdff85" stroke="#a0a0a4" d="M.0,80.0L102.0,80.0L102.0,120.0L.0,120.0L.0,80.0z" stroke-width="1"/><text style="fill:#191919;font-family:BIZ UDゴシック,PingFang SC,Mircrosoft YaHei,Arial;font-size:24.00pt" xml:space="preserve"><tspan style="font-size:12.00pt" textLength="16.0" x="43.0" y="106.0">…</tspan></text></g><g><path fill="#fdff85" stroke="#a0a0a4" d="M102.0,80.0L204.0,80.0L204.0,120.0L102.0,120.0L102.0,80.0z" stroke-width="1"/><text style="fill:#191919;font-family:BIZ UDゴシック,PingFang SC,Mircrosoft YaHei,Arial;font-size:24.00pt" xml:space="preserve"><tspan style="font-size:12.00pt" textLength="16.0" x="145.0" y="106.0">…</tspan></text></g><g><path fill="#ab91f8" stroke="#a0a0a4" d="M230.4,80.0L332.4,80.0L332.4,120.0L230.4,120.0L230.4,80.0z" stroke-width="1"/><text style="fill:#191919;font-family:BIZ UDゴシック,PingFang SC,Mircrosoft YaHei,Arial;font-size:24.00pt" xml:space="preserve"><tspan style="font-size:12.00pt" textLength="16.0" x="273.4" y="106.0">…</tspan></text></g><g><path fill="#ab91f8" stroke="#a0a0a4" d="M332.4,80.0L434.4,80.0L434.4,120.0L332.4,120.0L332.4,80.0z" stroke-width="1"/><text style="fill:#191919;font-family:BIZ UDゴシック,PingFang SC,Mircrosoft YaHei,Arial;font-size:24.00pt" xml:space="preserve"><tspan style="font-size:12.00pt" textLength="16.0" x="375.4" y="106.0">…</tspan></text></g><g><path fill="#fdff85" stroke="#a0a0a4" d="M.0,120.0L102.0,120.0L102.0,160.0L.0,160.0L.0,120.0z" stroke-width="1"/><text style="fill:#191919;font-family:BIZ UDゴシック,PingFang SC,Mircrosoft YaHei,Arial;font-size:24.00pt" xml:space="preserve"><tspan style="font-size:12.00pt" textLength="16.0" x="43.0" y="146.0">…</tspan></text></g><g><path fill="#fdff85" stroke="#a0a0a4" d="M102.0,120.0L204.0,120.0L204.0,160.0L102.0,160.0L102.0,120.0z" stroke-width="1"/><text style="fill:#191919;font-family:BIZ UDゴシック,PingFang SC,Mircrosoft YaHei,Arial;font-size:24.00pt" xml:space="preserve"><tspan style="font-size:12.00pt" textLength="16.0" x="145.0" y="146.0">…</tspan></text></g><g><path fill="#ab91f8" stroke="#a0a0a4" d="M230.4,120.0L332.4,120.0L332.4,160.0L230.4,160.0L230.4,120.0z" stroke-width="1"/><text style="fill:#191919;font-family:BIZ UDゴシック,PingFang SC,Mircrosoft YaHei,Arial;font-size:24.00pt" xml:space="preserve"><tspan style="font-size:12.00pt" textLength="16.0" x="273.4" y="146.0">…</tspan></text></g><g><path fill="#ab91f8" stroke="#a0a0a4" d="M332.4,120.0L434.4,120.0L434.4,160.0L332.4,160.0L332.4,120.0z" stroke-width="1"/><text style="fill:#191919;font-family:BIZ UDゴシック,PingFang SC,Mircrosoft YaHei,Arial;font-size:24.00pt" xml:space="preserve"><tspan style="font-size:12.00pt" textLength="16.0" x="375.4" y="146.0">…</tspan></text></g><g><path fill="#fdff85" stroke="#a0a0a4" d="M.0,160.0L102.0,160.0L102.0,200.0L.0,200.0L.0,160.0z" stroke-width="1"/><text style="fill:#191919;font-family:BIZ UDゴシック,PingFang SC,Mircrosoft YaHei,Arial;font-size:24.00pt" xml:space="preserve"><tspan style="font-size:12.00pt" textLength="40.0" x="31.0" y="186.0">10423</tspan></text></g><g><path fill="#fdff85" stroke="#a0a0a4" d="M102.0,160.0L204.0,160.0L204.0,200.0L102.0,200.0L102.0,160.0z" stroke-width="1"/><text style="fill:#191919;font-family:BIZ UDゴシック,PingFang SC,Mircrosoft YaHei,Arial;font-size:24.00pt" xml:space="preserve"><tspan style="font-size:12.00pt" textLength="16.0" x="145.0" y="186.0">20</tspan></text></g><g><path fill="#ab91f8" stroke="#a0a0a4" d="M230.4,160.0L332.4,160.0L332.4,200.0L230.4,200.0L230.4,160.0z" stroke-width="1"/><text style="fill:#191919;font-family:BIZ UDゴシック,PingFang SC,Mircrosoft YaHei,Arial;font-size:24.00pt" xml:space="preserve"><tspan style="font-size:12.00pt" textLength="16.0" x="273.4" y="186.0">…</tspan></text></g><g><path fill="#ab91f8" stroke="#a0a0a4" d="M332.4,160.0L434.4,160.0L434.4,200.0L332.4,200.0L332.4,160.0z" stroke-width="1"/><text style="fill:#191919;font-family:BIZ UDゴシック,PingFang SC,Mircrosoft YaHei,Arial;font-size:24.00pt" xml:space="preserve"><tspan style="font-size:12.00pt" textLength="16.0" x="375.4" y="186.0">…</tspan></text></g><g><path fill="#fdff85" stroke="#a0a0a4" d="M.0,200.0L102.0,200.0L102.0,240.0L.0,240.0L.0,200.0z" stroke-width="1"/><text style="fill:#191919;font-family:BIZ UDゴシック,PingFang SC,Mircrosoft YaHei,Arial;font-size:24.00pt" xml:space="preserve"><tspan style="font-size:12.00pt" textLength="16.0" x="43.0" y="226.0">…</tspan></text></g><g><path fill="#fdff85" stroke="#a0a0a4" d="M102.0,200.0L204.0,200.0L204.0,240.0L102.0,240.0L102.0,200.0z" stroke-width="1"/><text style="fill:#191919;font-family:BIZ UDゴシック,PingFang SC,Mircrosoft YaHei,Arial;font-size:24.00pt" xml:space="preserve"><tspan style="font-size:12.00pt" textLength="16.0" x="145.0" y="226.0">…</tspan></text></g><g><path fill="#ab91f8" stroke="#a0a0a4" d="M230.4,200.0L332.4,200.0L332.4,240.0L230.4,240.0L230.4,200.0z" stroke-width="1"/><text style="fill:#191919;font-family:BIZ UDゴシック,PingFang SC,Mircrosoft YaHei,Arial;font-size:24.00pt" xml:space="preserve"><tspan style="font-size:12.00pt" textLength="16.0" x="273.4" y="226.0">…</tspan></text></g><g><path fill="#ab91f8" stroke="#a0a0a4" d="M332.4,200.0L434.4,200.0L434.4,240.0L332.4,240.0L332.4,200.0z" stroke-width="1"/><text style="fill:#191919;font-family:BIZ UDゴシック,PingFang SC,Mircrosoft YaHei,Arial;font-size:24.00pt" xml:space="preserve"><tspan style="font-size:12.00pt" textLength="16.0" x="375.4" y="226.0">…</tspan></text></g><g><path fill="#fdff85" stroke="#a0a0a4" d="M.0,240.0L102.0,240.0L102.0,280.0L.0,280.0L.0,240.0z" stroke-width="1"/><text style="fill:#191919;font-family:BIZ UDゴシック,PingFang SC,Mircrosoft YaHei,Arial;font-size:24.00pt" xml:space="preserve"><tspan style="font-size:12.00pt" textLength="16.0" x="43.0" y="266.0">…</tspan></text></g><g><path fill="#fdff85" stroke="#a0a0a4" d="M102.0,240.0L204.0,240.0L204.0,280.0L102.0,280.0L102.0,240.0z" stroke-width="1"/><text style="fill:#191919;font-family:BIZ UDゴシック,PingFang SC,Mircrosoft YaHei,Arial;font-size:24.00pt" xml:space="preserve"><tspan style="font-size:12.00pt" textLength="16.0" x="145.0" y="266.0">…</tspan></text></g><g><path fill="#ab91f8" stroke="#a0a0a4" d="M230.4,240.0L332.4,240.0L332.4,280.0L230.4,280.0L230.4,240.0z" stroke-width="1"/><text style="fill:#191919;font-family:BIZ UDゴシック,PingFang SC,Mircrosoft YaHei,Arial;font-size:24.00pt" xml:space="preserve"><tspan style="font-size:12.00pt" textLength="16.0" x="273.4" y="266.0">…</tspan></text></g><g><path fill="#ab91f8" stroke="#a0a0a4" d="M332.4,240.0L434.4,240.0L434.4,280.0L332.4,280.0L332.4,240.0z" stroke-width="1"/><text style="fill:#191919;font-family:BIZ UDゴシック,PingFang SC,Mircrosoft YaHei,Arial;font-size:24.00pt" xml:space="preserve"><tspan style="font-size:12.00pt" textLength="16.0" x="375.4" y="266.0">…</tspan></text></g><g><path fill="#fdff85" stroke="#a0a0a4" d="M.0,280.0L102.0,280.0L102.0,320.0L.0,320.0L.0,280.0z" stroke-width="1"/><text style="fill:#191919;font-family:BIZ UDゴシック,PingFang SC,Mircrosoft YaHei,Arial;font-size:24.00pt" xml:space="preserve"><tspan style="font-size:12.00pt" textLength="16.0" x="43.0" y="306.0">…</tspan></text></g><g><path fill="#fdff85" stroke="#a0a0a4" d="M102.0,280.0L204.0,280.0L204.0,320.0L102.0,320.0L102.0,280.0z" stroke-width="1"/><text style="fill:#191919;font-family:BIZ UDゴシック,PingFang SC,Mircrosoft YaHei,Arial;font-size:24.00pt" xml:space="preserve"><tspan style="font-size:12.00pt" textLength="16.0" x="145.0" y="306.0">…</tspan></text></g><g><path fill="#ab91f8" stroke="#a0a0a4" d="M230.4,280.0L332.4,280.0L332.4,320.0L230.4,320.0L230.4,280.0z" stroke-width="1"/><text style="fill:#191919;font-family:BIZ UDゴシック,PingFang SC,Mircrosoft YaHei,Arial;font-size:24.00pt" xml:space="preserve"><tspan style="font-size:12.00pt" textLength="16.0" x="273.4" y="306.0">…</tspan></text></g><g><path fill="#ab91f8" stroke="#a0a0a4" d="M332.4,280.0L434.4,280.0L434.4,320.0L332.4,320.0L332.4,280.0z" stroke-width="1"/><text style="fill:#191919;font-family:BIZ UDゴシック,PingFang SC,Mircrosoft YaHei,Arial;font-size:24.00pt" xml:space="preserve"><tspan style="font-size:12.00pt" textLength="16.0" x="375.4" y="306.0">…</tspan></text></g></g><g transform="translate(391.663386,398.909449)" id="shape2"><text style="fill:#191919;font-family:Arial,PingFang SC,Mircrosoft YaHei,Arial;font-size:40.00pt" xml:space="preserve"><tspan style="font-size:20.00pt" textLength="15.0" x="3.1" y="31.0">a</tspan></text></g></g></svg>