<svg xmlns:xlink="http://www.w3.org/1999/xlink" height="321" viewBox="0 0 458 321" xmlns="http://www.w3.org/2000/svg" width="458"><defs/><g transform="translate(-389.63,-241.70)"><g transform="translate(412.933071,242.204724)" id="table1"><g><path fill="#ffb713" stroke="#a0a0a4" d="M.0,.0L204.0,.0L204.0,40.0L.0,40.0L.0,.0z" stroke-width="1"/><text style="fill:#191919;font-family:BIZ UDゴシック,PingFang SC,Mircrosoft YaHei,Arial;font-size:24.00pt" xml:space="preserve"><tspan style="font-size:12.00pt" textLength="96.0" x="54.0" y="26.0">スタック領域</tspan></text></g><g><path fill="#ffffff" stroke="#a0a0a4" d="M204.0,.0L230.4,.0L230.4,320.0L204.0,320.0L204.0,.0z" stroke-width="1"/><text style="fill:#191919;font-family:BIZ UDゴシック,PingFang SC,Mircrosoft YaHei,Arial;font-size:24.00pt" xml:space="preserve"/></g><g><path fill="#c351e8" stroke="#a0a0a4" d="M230.4,.0L434.4,.0L434.4,40.0L230.4,40.0L230.4,.0z" stroke-width="1"/><text style="fill:#191919;font-family:BIZ UDゴシック,PingFang SC,Mircrosoft YaHei,Arial;font-size:24.00pt" xml:space="preserve"><tspan style="font-size:12.00pt" textLength="80.0" x="292.4" y="26.0">ヒープ領域</tspan></text></g><g><path fill="#fdff85" stroke="#a0a0a4" d="M.0,40.0L102.0,40.0L102.0,80.0L.0,80.0L.0,40.0z" stroke-width="1"/><text style="fill:#191919;font-family:BIZ UDゴシック,PingFang SC,Mircrosoft YaHei,Arial;font-size:24.00pt" xml:space="preserve"><tspan style="font-size:12.00pt" textLength="64.0" x="19.0" y="66.0">アドレス</tspan></text></g><g><path fill="#fdff85" stroke="#a0a0a4" d="M102.0,40.0L204.0,40.0L204.0,80.0L102.0,80.0L102.0,40.0z" stroke-width="1"/><text style="fill:#191919;font-family:BIZ UDゴシック,PingFang SC,Mircrosoft YaHei,Arial;font-size:24.00pt" xml:space="preserve"><tspan style="font-size:12.00pt" textLength="16.0" x="145.0" y="66.0">値</tspan></text></g><g><path fill="#ab91f8" stroke="#a0a0a4" d="M230.4,40.0L332.4,40.0L332.4,80.0L230.4,80.0L230.4,40.0z" stroke-width="1"/><text style="fill:#191919;font-family:BIZ UDゴシック,PingFang SC,Mircrosoft YaHei,Arial;font-size:24.00pt" xml:space="preserve"><tspan style="font-size:12.00pt" textLength="64.0" x="249.4" y="66.0">アドレス</tspan></text></g><g><path fill="#ab91f8" stroke="#a0a0a4" d="M332.4,40.0L434.4,40.0L434.4,80.0L332.4,80.0L332.4,40.0z" stroke-width="1"/><text style="fill:#191919;font-family:BIZ UDゴシック,PingFang SC,Mircrosoft YaHei,Arial;font-size:24.00pt" xml:space="preserve"><tspan style="font-size:12.00pt" textLength="16.0" x="375.4" y="66.0">値</tspan></text></g><g><path fill="#fdff85" stroke="#a0a0a4" d="M.0,80.0L102.0,80.0L102.0,120.0L.0,120.0L.0,80.0z" stroke-width="1"/><text style="fill:#191919;font-family:BIZ UDゴシック,PingFang SC,Mircrosoft YaHei,Arial;font-size:24.00pt" xml:space="preserve"><tspan style="font-size:12.00pt" textLength="16.0" x="43.0" y="106.0">…</tspan></text></g><g><path fill="#fdff85" stroke="#a0a0a4" d="M102.0,80.0L204.0,80.0L204.0,120.0L102.0,120.0L102.0,80.0z" stroke-width="1"/><text style="fill:#191919;font-family:BIZ UDゴシック,PingFang SC,Mircrosoft YaHei,Arial;font-size:24.00pt" xml:space="preserve"><tspan style="font-size:12.00pt" textLength="16.0" x="145.0" y="106.0">…</tspan></text></g><g><path fill="#ab91f8" stroke="#a0a0a4" d="M230.4,80.0L332.4,80.0L332.4,120.0L230.4,120.0L230.4,80.0z" stroke-width="1"/><text style="fill:#191919;font-family:BIZ UDゴシック,PingFang SC,Mircrosoft YaHei,Arial;font-size:24.00pt" xml:space="preserve"><tspan style="font-size:12.00pt" textLength="16.0" x="273.4" y="106.0">…</tspan></text></g><g><path fill="#ab91f8" stroke="#a0a0a4" d="M332.4,80.0L434.4,80.0L434.4,120.0L332.4,120.0L332.4,80.0z" stroke-width="1"/><text style="fill:#191919;font-family:BIZ UDゴシック,PingFang SC,Mircrosoft YaHei,Arial;font-size:24.00pt" xml:space="preserve"><tspan style="font-size:12.00pt" textLength="16.0" x="375.4" y="106.0">…</tspan></text></g><g><path fill="#fdff85" stroke="#a0a0a4" d="M.0,120.0L102.0,120.0L102.0,160.0L.0,160.0L.0,120.0z" stroke-width="1"/><text style="fill:#191919;font-family:BIZ UDゴシック,PingFang SC,Mircrosoft YaHei,Arial;font-size:24.00pt" xml:space="preserve"><tspan style="font-size:12.00pt" textLength="40.0" x="31.0" y="146.0">10238</tspan></text></g><g><path fill="#fdff85" stroke="#a0a0a4" d="M102.0,120.0L204.0,120.0L204.0,160.0L102.0,160.0L102.0,120.0z" stroke-width="1"/><text style="fill:#191919;font-family:BIZ UDゴシック,PingFang SC,Mircrosoft YaHei,Arial;font-size:24.00pt" xml:space="preserve"><tspan style="font-size:12.00pt" textLength="40.0" x="133.0" y="146.0">22486</tspan></text></g><g><path fill="#ab91f8" stroke="#a0a0a4" d="M230.4,120.0L332.4,120.0L332.4,160.0L230.4,160.0L230.4,120.0z" stroke-width="1"/><text style="fill:#191919;font-family:BIZ UDゴシック,PingFang SC,Mircrosoft YaHei,Arial;font-size:24.00pt" xml:space="preserve"><tspan style="font-size:12.00pt" textLength="40.0" x="261.4" y="146.0">22486</tspan></text></g><g><path fill="#ab91f8" stroke="#a0a0a4" d="M332.4,120.0L434.4,120.0L434.4,160.0L332.4,160.0L332.4,120.0z" stroke-width="1"/><text style="fill:#191919;font-family:BIZ UDゴシック,PingFang SC,Mircrosoft YaHei,Arial;font-size:24.00pt" xml:space="preserve"><tspan style="font-size:12.00pt" textLength="16.0" x="375.4" y="146.0">20</tspan></text></g><g><path fill="#fdff85" stroke="#a0a0a4" d="M.0,160.0L102.0,160.0L102.0,200.0L.0,200.0L.0,160.0z" stroke-width="1"/><text style="fill:#191919;font-family:BIZ UDゴシック,PingFang SC,Mircrosoft YaHei,Arial;font-size:24.00pt" xml:space="preserve"><tspan style="font-size:12.00pt" textLength="16.0" x="43.0" y="186.0">…</tspan></text></g><g><path fill="#fdff85" stroke="#a0a0a4" d="M102.0,160.0L204.0,160.0L204.0,200.0L102.0,200.0L102.0,160.0z" stroke-width="1"/><text style="fill:#191919;font-family:BIZ UDゴシック,PingFang SC,Mircrosoft YaHei,Arial;font-size:24.00pt" xml:space="preserve"><tspan style="font-size:12.00pt" textLength="16.0" x="145.0" y="186.0">…</tspan></text></g><g><path fill="#ab91f8" stroke="#a0a0a4" d="M230.4,160.0L332.4,160.0L332.4,200.0L230.4,200.0L230.4,160.0z" stroke-width="1"/><text style="fill:#191919;font-family:BIZ UDゴシック,PingFang SC,Mircrosoft YaHei,Arial;font-size:24.00pt" xml:space="preserve"><tspan style="font-size:12.00pt" textLength="16.0" x="273.4" y="186.0">…</tspan></text></g><g><path fill="#ab91f8" stroke="#a0a0a4" d="M332.4,160.0L434.4,160.0L434.4,200.0L332.4,200.0L332.4,160.0z" stroke-width="1"/><text style="fill:#191919;font-family:BIZ UDゴシック,PingFang SC,Mircrosoft YaHei,Arial;font-size:24.00pt" xml:space="preserve"><tspan style="font-size:12.00pt" textLength="16.0" x="375.4" y="186.0">…</tspan></text></g><g><path fill="#fdff85" stroke="#a0a0a4" d="M.0,200.0L102.0,200.0L102.0,240.0L.0,240.0L.0,200.0z" stroke-width="1"/><text style="fill:#191919;font-family:BIZ UDゴシック,PingFang SC,Mircrosoft YaHei,Arial;font-size:24.00pt" xml:space="preserve"><tspan style="font-size:12.00pt" textLength="16.0" x="43.0" y="226.0">…</tspan></text></g><g><path fill="#fdff85" stroke="#a0a0a4" d="M102.0,200.0L204.0,200.0L204.0,240.0L102.0,240.0L102.0,200.0z" stroke-width="1"/><text style="fill:#191919;font-family:BIZ UDゴシック,PingFang SC,Mircrosoft YaHei,Arial;font-size:24.00pt" xml:space="preserve"><tspan style="font-size:12.00pt" textLength="16.0" x="145.0" y="226.0">…</tspan></text></g><g><path fill="#ab91f8" stroke="#a0a0a4" d="M230.4,200.0L332.4,200.0L332.4,240.0L230.4,240.0L230.4,200.0z" stroke-width="1"/><text style="fill:#191919;font-family:BIZ UDゴシック,PingFang SC,Mircrosoft YaHei,Arial;font-size:24.00pt" xml:space="preserve"><tspan style="font-size:12.00pt" textLength="16.0" x="273.4" y="226.0">…</tspan></text></g><g><path fill="#ab91f8" stroke="#a0a0a4" d="M332.4,200.0L434.4,200.0L434.4,240.0L332.4,240.0L332.4,200.0z" stroke-width="1"/><text style="fill:#191919;font-family:BIZ UDゴシック,PingFang SC,Mircrosoft YaHei,Arial;font-size:24.00pt" xml:space="preserve"><tspan style="font-size:12.00pt" textLength="16.0" x="375.4" y="226.0">…</tspan></text></g><g><path fill="#fdff85" stroke="#a0a0a4" d="M.0,240.0L102.0,240.0L102.0,280.0L.0,280.0L.0,240.0z" stroke-width="1"/><text style="fill:#191919;font-family:BIZ UDゴシック,PingFang SC,Mircrosoft YaHei,Arial;font-size:24.00pt" xml:space="preserve"><tspan style="font-size:12.00pt" textLength="16.0" x="43.0" y="266.0">…</tspan></text></g><g><path fill="#fdff85" stroke="#a0a0a4" d="M102.0,240.0L204.0,240.0L204.0,280.0L102.0,280.0L102.0,240.0z" stroke-width="1"/><text style="fill:#191919;font-family:BIZ UDゴシック,PingFang SC,Mircrosoft YaHei,Arial;font-size:24.00pt" xml:space="preserve"><tspan style="font-size:12.00pt" textLength="16.0" x="145.0" y="266.0">…</tspan></text></g><g><path fill="#ab91f8" stroke="#a0a0a4" d="M230.4,240.0L332.4,240.0L332.4,280.0L230.4,280.0L230.4,240.0z" stroke-width="1"/><text style="fill:#191919;font-family:BIZ UDゴシック,PingFang SC,Mircrosoft YaHei,Arial;font-size:24.00pt" xml:space="preserve"><tspan style="font-size:12.00pt" textLength="16.0" x="273.4" y="266.0">…</tspan></text></g><g><path fill="#ab91f8" stroke="#a0a0a4" d="M332.4,240.0L434.4,240.0L434.4,280.0L332.4,280.0L332.4,240.0z" stroke-width="1"/><text style="fill:#191919;font-family:BIZ UDゴシック,PingFang SC,Mircrosoft YaHei,Arial;font-size:24.00pt" xml:space="preserve"><tspan style="font-size:12.00pt" textLength="16.0" x="375.4" y="266.0">…</tspan></text></g><g><path fill="#fdff85" stroke="#a0a0a4" d="M.0,280.0L102.0,280.0L102.0,320.0L.0,320.0L.0,280.0z" stroke-width="1"/><text style="fill:#191919;font-family:BIZ UDゴシック,PingFang SC,Mircrosoft YaHei,Arial;font-size:24.00pt" xml:space="preserve"><tspan style="font-size:12.00pt" textLength="16.0" x="43.0" y="306.0">…</tspan></text></g><g><path fill="#fdff85" stroke="#a0a0a4" d="M102.0,280.0L204.0,280.0L204.0,320.0L102.0,320.0L102.0,280.0z" stroke-width="1"/><text style="fill:#191919;font-family:BIZ UDゴシック,PingFang SC,Mircrosoft YaHei,Arial;font-size:24.00pt" xml:space="preserve"><tspan style="font-size:12.00pt" textLength="16.0" x="145.0" y="306.0">…</tspan></text></g><g><path fill="#ab91f8" stroke="#a0a0a4" d="M230.4,280.0L332.4,280.0L332.4,320.0L230.4,320.0L230.4,280.0z" stroke-width="1"/><text style="fill:#191919;font-family:BIZ UDゴシック,PingFang SC,Mircrosoft YaHei,Arial;font-size:24.00pt" xml:space="preserve"><tspan style="font-size:12.00pt" textLength="16.0" x="273.4" y="306.0">…</tspan></text></g><g><path fill="#ab91f8" stroke="#a0a0a4" d="M332.4,280.0L434.4,280.0L434.4,320.0L332.4,320.0L332.4,280.0z" stroke-width="1"/><text style="fill:#191919;font-family:BIZ UDゴシック,PingFang SC,Mircrosoft YaHei,Arial;font-size:24.00pt" xml:space="preserve"><tspan style="font-size:12.00pt" textLength="16.0" x="375.4" y="306.0">…</tspan></text></g></g><g transform="translate(390.698819,359.393701)" id="shape2"><text style="fill:#191919;font-family:Arial,PingFang SC,Mircrosoft YaHei,Arial;font-size:40.00pt" xml:space="preserve"><tspan style="font-size:20.00pt" textLength="15.0" x="2.4" y="31.0">a</tspan></text></g><path fill="none" stroke="#101843" transform="translate(517.928061,356.404975)" id="shape3" d="M.0,27.4C.0,12.3,21.9,.0,49.0,.0C76.1,.0,98.0,12.3,98.0,27.4C98.0,42.5,76.1,54.8,49.0,54.8C21.9,54.8,.0,42.5,.0,27.4z" stroke-width="1"/><g transform="translate(594.813129,361.268433)" id="shape4"><path fill="none" stroke="#191919" d="M.0,.0C10.1,-8.2,20.2,-16.5,32.1,-20.8C44.0,-25.2,57.8,-25.6,69.5,-21.2C79.7,-17.5,88.3,-10.0,96.7,-2.1" stroke-width="1"/><path fill="#191919" stroke-linecap="round" stroke="#191919" d="M98.3,-4.7L100.6,1.6L94.2,-0.4L98.3,-4.7" stroke-width="1"/></g></g></svg>